<mxfile host="app.diagrams.net" modified="2024-05-20T02:43:49.005Z" agent="Mozilla/5.0 (Windows NT 10.0; Win64; x64) AppleWebKit/537.36 (KHTML, like Gecko) Chrome/125.0.0.0 Safari/537.36" etag="0OiXjnbRt-Dq51nFMz5P" version="24.4.4" type="github">
  <diagram name="Page-1" id="e56a1550-8fbb-45ad-956c-1786394a9013">
    <mxGraphModel dx="2072" dy="1138" grid="0" gridSize="10" guides="0" tooltips="1" connect="1" arrows="1" fold="1" page="0" pageScale="1" pageWidth="1100" pageHeight="850" background="none" math="0" shadow="0">
      <root>
        <mxCell id="0" />
        <mxCell id="1" parent="0" />
        <mxCell id="ab-andwz2Mcpa9uNdyiQ-1" value="Goods" style="shape=table;startSize=30;container=1;collapsible=1;childLayout=tableLayout;fixedRows=1;rowLines=0;fontStyle=1;align=center;resizeLast=1;labelBackgroundColor=none;fillColor=#21C0A5;strokeColor=#006658;fontColor=#5C5C5C;" parent="1" vertex="1">
          <mxGeometry x="1411" y="418" width="320" height="240" as="geometry" />
        </mxCell>
        <mxCell id="ab-andwz2Mcpa9uNdyiQ-2" value="" style="shape=tableRow;horizontal=0;startSize=0;swimlaneHead=0;swimlaneBody=0;fillColor=none;collapsible=0;dropTarget=0;points=[[0,0.5],[1,0.5]];portConstraint=eastwest;strokeColor=#006658;top=0;left=0;right=0;bottom=1;labelBackgroundColor=none;fontColor=#5C5C5C;" parent="ab-andwz2Mcpa9uNdyiQ-1" vertex="1">
          <mxGeometry y="30" width="320" height="30" as="geometry" />
        </mxCell>
        <mxCell id="ab-andwz2Mcpa9uNdyiQ-3" value="PK" style="shape=partialRectangle;overflow=hidden;connectable=0;fillColor=none;strokeColor=#006658;top=0;left=0;bottom=0;right=0;fontStyle=1;labelBackgroundColor=none;fontColor=#5C5C5C;" parent="ab-andwz2Mcpa9uNdyiQ-2" vertex="1">
          <mxGeometry width="30" height="30" as="geometry">
            <mxRectangle width="30" height="30" as="alternateBounds" />
          </mxGeometry>
        </mxCell>
        <mxCell id="ab-andwz2Mcpa9uNdyiQ-4" value="goodsId INT NOT NULL AUTO_INCREMENT COMMENT &#39;商品的唯一标识&#39;" style="shape=partialRectangle;overflow=hidden;connectable=0;fillColor=none;align=left;strokeColor=#006658;top=0;left=0;bottom=0;right=0;spacingLeft=6;fontStyle=5;labelBackgroundColor=none;fontColor=#5C5C5C;" parent="ab-andwz2Mcpa9uNdyiQ-2" vertex="1">
          <mxGeometry x="30" width="290" height="30" as="geometry">
            <mxRectangle width="290" height="30" as="alternateBounds" />
          </mxGeometry>
        </mxCell>
        <mxCell id="ab-andwz2Mcpa9uNdyiQ-5" value="" style="shape=tableRow;horizontal=0;startSize=0;swimlaneHead=0;swimlaneBody=0;fillColor=none;collapsible=0;dropTarget=0;points=[[0,0.5],[1,0.5]];portConstraint=eastwest;strokeColor=#006658;top=0;left=0;right=0;bottom=0;labelBackgroundColor=none;fontColor=#5C5C5C;" parent="ab-andwz2Mcpa9uNdyiQ-1" vertex="1">
          <mxGeometry y="60" width="320" height="30" as="geometry" />
        </mxCell>
        <mxCell id="ab-andwz2Mcpa9uNdyiQ-6" value="" style="shape=partialRectangle;overflow=hidden;connectable=0;fillColor=none;strokeColor=#006658;top=0;left=0;bottom=0;right=0;labelBackgroundColor=none;fontColor=#5C5C5C;" parent="ab-andwz2Mcpa9uNdyiQ-5" vertex="1">
          <mxGeometry width="30" height="30" as="geometry">
            <mxRectangle width="30" height="30" as="alternateBounds" />
          </mxGeometry>
        </mxCell>
        <mxCell id="ab-andwz2Mcpa9uNdyiQ-7" value="goodsName VARCHAR(100) NOT NULL COMMENT &#39;商品的名称&#39;" style="shape=partialRectangle;overflow=hidden;connectable=0;fillColor=none;align=left;strokeColor=#006658;top=0;left=0;bottom=0;right=0;spacingLeft=6;labelBackgroundColor=none;fontColor=#5C5C5C;" parent="ab-andwz2Mcpa9uNdyiQ-5" vertex="1">
          <mxGeometry x="30" width="290" height="30" as="geometry">
            <mxRectangle width="290" height="30" as="alternateBounds" />
          </mxGeometry>
        </mxCell>
        <mxCell id="ab-andwz2Mcpa9uNdyiQ-8" value="" style="shape=tableRow;horizontal=0;startSize=0;swimlaneHead=0;swimlaneBody=0;fillColor=none;collapsible=0;dropTarget=0;points=[[0,0.5],[1,0.5]];portConstraint=eastwest;strokeColor=#006658;top=0;left=0;right=0;bottom=0;labelBackgroundColor=none;fontColor=#5C5C5C;" parent="ab-andwz2Mcpa9uNdyiQ-1" vertex="1">
          <mxGeometry y="90" width="320" height="30" as="geometry" />
        </mxCell>
        <mxCell id="ab-andwz2Mcpa9uNdyiQ-9" value="" style="shape=partialRectangle;overflow=hidden;connectable=0;fillColor=none;strokeColor=#006658;top=0;left=0;bottom=0;right=0;labelBackgroundColor=none;fontColor=#5C5C5C;" parent="ab-andwz2Mcpa9uNdyiQ-8" vertex="1">
          <mxGeometry width="30" height="30" as="geometry">
            <mxRectangle width="30" height="30" as="alternateBounds" />
          </mxGeometry>
        </mxCell>
        <mxCell id="ab-andwz2Mcpa9uNdyiQ-10" value="goodsCategory VARCHAR(50) NOT NULL COMMENT &#39;商品所属的分类&#39;" style="shape=partialRectangle;overflow=hidden;connectable=0;fillColor=none;align=left;strokeColor=#006658;top=0;left=0;bottom=0;right=0;spacingLeft=6;labelBackgroundColor=none;fontColor=#5C5C5C;" parent="ab-andwz2Mcpa9uNdyiQ-8" vertex="1">
          <mxGeometry x="30" width="290" height="30" as="geometry">
            <mxRectangle width="290" height="30" as="alternateBounds" />
          </mxGeometry>
        </mxCell>
        <mxCell id="ab-andwz2Mcpa9uNdyiQ-11" value="" style="shape=tableRow;horizontal=0;startSize=0;swimlaneHead=0;swimlaneBody=0;fillColor=none;collapsible=0;dropTarget=0;points=[[0,0.5],[1,0.5]];portConstraint=eastwest;strokeColor=#006658;top=0;left=0;right=0;bottom=0;labelBackgroundColor=none;fontColor=#5C5C5C;" parent="ab-andwz2Mcpa9uNdyiQ-1" vertex="1">
          <mxGeometry y="120" width="320" height="30" as="geometry" />
        </mxCell>
        <mxCell id="ab-andwz2Mcpa9uNdyiQ-12" value="" style="shape=partialRectangle;overflow=hidden;connectable=0;fillColor=none;strokeColor=#006658;top=0;left=0;bottom=0;right=0;labelBackgroundColor=none;fontColor=#5C5C5C;" parent="ab-andwz2Mcpa9uNdyiQ-11" vertex="1">
          <mxGeometry width="30" height="30" as="geometry">
            <mxRectangle width="30" height="30" as="alternateBounds" />
          </mxGeometry>
        </mxCell>
        <mxCell id="ab-andwz2Mcpa9uNdyiQ-13" value="purchasePrice DECIMAL(10,2) NOT NULL COMMENT &#39;商品的进货价格&#39;" style="shape=partialRectangle;overflow=hidden;connectable=0;fillColor=none;align=left;strokeColor=#006658;top=0;left=0;bottom=0;right=0;spacingLeft=6;labelBackgroundColor=none;fontColor=#5C5C5C;" parent="ab-andwz2Mcpa9uNdyiQ-11" vertex="1">
          <mxGeometry x="30" width="290" height="30" as="geometry">
            <mxRectangle width="290" height="30" as="alternateBounds" />
          </mxGeometry>
        </mxCell>
        <mxCell id="ab-andwz2Mcpa9uNdyiQ-14" value="" style="shape=tableRow;horizontal=0;startSize=0;swimlaneHead=0;swimlaneBody=0;fillColor=none;collapsible=0;dropTarget=0;points=[[0,0.5],[1,0.5]];portConstraint=eastwest;strokeColor=#006658;top=0;left=0;right=0;bottom=0;labelBackgroundColor=none;fontColor=#5C5C5C;" parent="ab-andwz2Mcpa9uNdyiQ-1" vertex="1">
          <mxGeometry y="150" width="320" height="30" as="geometry" />
        </mxCell>
        <mxCell id="ab-andwz2Mcpa9uNdyiQ-15" value="" style="shape=partialRectangle;overflow=hidden;connectable=0;fillColor=none;strokeColor=#006658;top=0;left=0;bottom=0;right=0;labelBackgroundColor=none;fontColor=#5C5C5C;" parent="ab-andwz2Mcpa9uNdyiQ-14" vertex="1">
          <mxGeometry width="30" height="30" as="geometry">
            <mxRectangle width="30" height="30" as="alternateBounds" />
          </mxGeometry>
        </mxCell>
        <mxCell id="ab-andwz2Mcpa9uNdyiQ-16" value="sellingPrice DECIMAL(10,2) NOT NULL COMMENT &#39;商品的销售价格&#39;" style="shape=partialRectangle;overflow=hidden;connectable=0;fillColor=none;align=left;strokeColor=#006658;top=0;left=0;bottom=0;right=0;spacingLeft=6;labelBackgroundColor=none;fontColor=#5C5C5C;" parent="ab-andwz2Mcpa9uNdyiQ-14" vertex="1">
          <mxGeometry x="30" width="290" height="30" as="geometry">
            <mxRectangle width="290" height="30" as="alternateBounds" />
          </mxGeometry>
        </mxCell>
        <mxCell id="ab-andwz2Mcpa9uNdyiQ-17" value="" style="shape=tableRow;horizontal=0;startSize=0;swimlaneHead=0;swimlaneBody=0;fillColor=none;collapsible=0;dropTarget=0;points=[[0,0.5],[1,0.5]];portConstraint=eastwest;strokeColor=#006658;top=0;left=0;right=0;bottom=0;labelBackgroundColor=none;fontColor=#5C5C5C;" parent="ab-andwz2Mcpa9uNdyiQ-1" vertex="1">
          <mxGeometry y="180" width="320" height="30" as="geometry" />
        </mxCell>
        <mxCell id="ab-andwz2Mcpa9uNdyiQ-18" value="" style="shape=partialRectangle;overflow=hidden;connectable=0;fillColor=none;strokeColor=#006658;top=0;left=0;bottom=0;right=0;labelBackgroundColor=none;fontColor=#5C5C5C;" parent="ab-andwz2Mcpa9uNdyiQ-17" vertex="1">
          <mxGeometry width="30" height="30" as="geometry">
            <mxRectangle width="30" height="30" as="alternateBounds" />
          </mxGeometry>
        </mxCell>
        <mxCell id="ab-andwz2Mcpa9uNdyiQ-19" value="createTime DATETIME NOT NULL DEFAULT CURRENT_TIMESTAMP COMMENT &#39;商品创建的时间&#39;" style="shape=partialRectangle;overflow=hidden;connectable=0;fillColor=none;align=left;strokeColor=#006658;top=0;left=0;bottom=0;right=0;spacingLeft=6;labelBackgroundColor=none;fontColor=#5C5C5C;" parent="ab-andwz2Mcpa9uNdyiQ-17" vertex="1">
          <mxGeometry x="30" width="290" height="30" as="geometry">
            <mxRectangle width="290" height="30" as="alternateBounds" />
          </mxGeometry>
        </mxCell>
        <mxCell id="ab-andwz2Mcpa9uNdyiQ-20" value="" style="shape=tableRow;horizontal=0;startSize=0;swimlaneHead=0;swimlaneBody=0;fillColor=none;collapsible=0;dropTarget=0;points=[[0,0.5],[1,0.5]];portConstraint=eastwest;strokeColor=#006658;top=0;left=0;right=0;bottom=0;labelBackgroundColor=none;fontColor=#5C5C5C;" parent="ab-andwz2Mcpa9uNdyiQ-1" vertex="1">
          <mxGeometry y="210" width="320" height="30" as="geometry" />
        </mxCell>
        <mxCell id="ab-andwz2Mcpa9uNdyiQ-21" value="" style="shape=partialRectangle;overflow=hidden;connectable=0;fillColor=none;strokeColor=#006658;top=0;left=0;bottom=0;right=0;labelBackgroundColor=none;fontColor=#5C5C5C;" parent="ab-andwz2Mcpa9uNdyiQ-20" vertex="1">
          <mxGeometry width="30" height="30" as="geometry">
            <mxRectangle width="30" height="30" as="alternateBounds" />
          </mxGeometry>
        </mxCell>
        <mxCell id="ab-andwz2Mcpa9uNdyiQ-22" value="updateTime DATETIME NOT NULL DEFAULT CURRENT_TIMESTAMP ON UPDATE CURRENT_TIMESTAMP COMMENT &#39;商品最后一次更新的时间&#39;" style="shape=partialRectangle;overflow=hidden;connectable=0;fillColor=none;align=left;strokeColor=#006658;top=0;left=0;bottom=0;right=0;spacingLeft=6;labelBackgroundColor=none;fontColor=#5C5C5C;" parent="ab-andwz2Mcpa9uNdyiQ-20" vertex="1">
          <mxGeometry x="30" width="290" height="30" as="geometry">
            <mxRectangle width="290" height="30" as="alternateBounds" />
          </mxGeometry>
        </mxCell>
        <mxCell id="ab-andwz2Mcpa9uNdyiQ-23" value="Supplier" style="shape=table;startSize=24;container=1;collapsible=1;childLayout=tableLayout;fixedRows=1;rowLines=0;fontStyle=1;align=center;resizeLast=1;labelBackgroundColor=none;fillColor=#21C0A5;strokeColor=#006658;fontColor=#5C5C5C;" parent="1" vertex="1">
          <mxGeometry x="890" y="688" width="320" height="360" as="geometry" />
        </mxCell>
        <mxCell id="ab-andwz2Mcpa9uNdyiQ-24" value="" style="shape=tableRow;horizontal=0;startSize=0;swimlaneHead=0;swimlaneBody=0;fillColor=none;collapsible=0;dropTarget=0;points=[[0,0.5],[1,0.5]];portConstraint=eastwest;strokeColor=#006658;top=0;left=0;right=0;bottom=1;labelBackgroundColor=none;fontColor=#5C5C5C;" parent="ab-andwz2Mcpa9uNdyiQ-23" vertex="1">
          <mxGeometry y="24" width="320" height="30" as="geometry" />
        </mxCell>
        <mxCell id="ab-andwz2Mcpa9uNdyiQ-25" value="PK" style="shape=partialRectangle;overflow=hidden;connectable=0;fillColor=none;strokeColor=#006658;top=0;left=0;bottom=0;right=0;fontStyle=1;labelBackgroundColor=none;fontColor=#5C5C5C;" parent="ab-andwz2Mcpa9uNdyiQ-24" vertex="1">
          <mxGeometry width="30" height="30" as="geometry">
            <mxRectangle width="30" height="30" as="alternateBounds" />
          </mxGeometry>
        </mxCell>
        <mxCell id="ab-andwz2Mcpa9uNdyiQ-26" value="supplierId INT NOT NULL AUTO_INCREMENT COMMENT &#39;供应商的唯一标识&#39;" style="shape=partialRectangle;overflow=hidden;connectable=0;fillColor=none;align=left;strokeColor=#006658;top=0;left=0;bottom=0;right=0;spacingLeft=6;fontStyle=5;labelBackgroundColor=none;fontColor=#5C5C5C;" parent="ab-andwz2Mcpa9uNdyiQ-24" vertex="1">
          <mxGeometry x="30" width="290" height="30" as="geometry">
            <mxRectangle width="290" height="30" as="alternateBounds" />
          </mxGeometry>
        </mxCell>
        <mxCell id="ab-andwz2Mcpa9uNdyiQ-27" value="" style="shape=tableRow;horizontal=0;startSize=0;swimlaneHead=0;swimlaneBody=0;fillColor=none;collapsible=0;dropTarget=0;points=[[0,0.5],[1,0.5]];portConstraint=eastwest;strokeColor=#006658;top=0;left=0;right=0;bottom=0;labelBackgroundColor=none;fontColor=#5C5C5C;" parent="ab-andwz2Mcpa9uNdyiQ-23" vertex="1">
          <mxGeometry y="54" width="320" height="30" as="geometry" />
        </mxCell>
        <mxCell id="ab-andwz2Mcpa9uNdyiQ-28" value="" style="shape=partialRectangle;overflow=hidden;connectable=0;fillColor=none;strokeColor=#006658;top=0;left=0;bottom=0;right=0;labelBackgroundColor=none;fontColor=#5C5C5C;" parent="ab-andwz2Mcpa9uNdyiQ-27" vertex="1">
          <mxGeometry width="30" height="30" as="geometry">
            <mxRectangle width="30" height="30" as="alternateBounds" />
          </mxGeometry>
        </mxCell>
        <mxCell id="ab-andwz2Mcpa9uNdyiQ-29" value="supplierNo VARCHAR(20) COMMENT &#39;供应商的编号&#39;" style="shape=partialRectangle;overflow=hidden;connectable=0;fillColor=none;align=left;strokeColor=#006658;top=0;left=0;bottom=0;right=0;spacingLeft=6;labelBackgroundColor=none;fontColor=#5C5C5C;" parent="ab-andwz2Mcpa9uNdyiQ-27" vertex="1">
          <mxGeometry x="30" width="290" height="30" as="geometry">
            <mxRectangle width="290" height="30" as="alternateBounds" />
          </mxGeometry>
        </mxCell>
        <mxCell id="ab-andwz2Mcpa9uNdyiQ-30" value="" style="shape=tableRow;horizontal=0;startSize=0;swimlaneHead=0;swimlaneBody=0;fillColor=none;collapsible=0;dropTarget=0;points=[[0,0.5],[1,0.5]];portConstraint=eastwest;strokeColor=#006658;top=0;left=0;right=0;bottom=0;labelBackgroundColor=none;fontColor=#5C5C5C;" parent="ab-andwz2Mcpa9uNdyiQ-23" vertex="1">
          <mxGeometry y="84" width="320" height="30" as="geometry" />
        </mxCell>
        <mxCell id="ab-andwz2Mcpa9uNdyiQ-31" value="" style="shape=partialRectangle;overflow=hidden;connectable=0;fillColor=none;strokeColor=#006658;top=0;left=0;bottom=0;right=0;labelBackgroundColor=none;fontColor=#5C5C5C;" parent="ab-andwz2Mcpa9uNdyiQ-30" vertex="1">
          <mxGeometry width="30" height="30" as="geometry">
            <mxRectangle width="30" height="30" as="alternateBounds" />
          </mxGeometry>
        </mxCell>
        <mxCell id="ab-andwz2Mcpa9uNdyiQ-32" value="supplierName VARCHAR(100) COMMENT &#39;供应商的名称&#39;" style="shape=partialRectangle;overflow=hidden;connectable=0;fillColor=none;align=left;strokeColor=#006658;top=0;left=0;bottom=0;right=0;spacingLeft=6;labelBackgroundColor=none;fontColor=#5C5C5C;" parent="ab-andwz2Mcpa9uNdyiQ-30" vertex="1">
          <mxGeometry x="30" width="290" height="30" as="geometry">
            <mxRectangle width="290" height="30" as="alternateBounds" />
          </mxGeometry>
        </mxCell>
        <mxCell id="ab-andwz2Mcpa9uNdyiQ-33" value="" style="shape=tableRow;horizontal=0;startSize=0;swimlaneHead=0;swimlaneBody=0;fillColor=none;collapsible=0;dropTarget=0;points=[[0,0.5],[1,0.5]];portConstraint=eastwest;strokeColor=#006658;top=0;left=0;right=0;bottom=0;labelBackgroundColor=none;fontColor=#5C5C5C;" parent="ab-andwz2Mcpa9uNdyiQ-23" vertex="1">
          <mxGeometry y="114" width="320" height="30" as="geometry" />
        </mxCell>
        <mxCell id="ab-andwz2Mcpa9uNdyiQ-34" value="" style="shape=partialRectangle;overflow=hidden;connectable=0;fillColor=none;strokeColor=#006658;top=0;left=0;bottom=0;right=0;labelBackgroundColor=none;fontColor=#5C5C5C;" parent="ab-andwz2Mcpa9uNdyiQ-33" vertex="1">
          <mxGeometry width="30" height="30" as="geometry">
            <mxRectangle width="30" height="30" as="alternateBounds" />
          </mxGeometry>
        </mxCell>
        <mxCell id="ab-andwz2Mcpa9uNdyiQ-35" value="supplierDesc VARCHAR(500) COMMENT &#39;供应商的描述信息&#39;" style="shape=partialRectangle;overflow=hidden;connectable=0;fillColor=none;align=left;strokeColor=#006658;top=0;left=0;bottom=0;right=0;spacingLeft=6;labelBackgroundColor=none;fontColor=#5C5C5C;" parent="ab-andwz2Mcpa9uNdyiQ-33" vertex="1">
          <mxGeometry x="30" width="290" height="30" as="geometry">
            <mxRectangle width="290" height="30" as="alternateBounds" />
          </mxGeometry>
        </mxCell>
        <mxCell id="ab-andwz2Mcpa9uNdyiQ-36" value="" style="shape=tableRow;horizontal=0;startSize=0;swimlaneHead=0;swimlaneBody=0;fillColor=none;collapsible=0;dropTarget=0;points=[[0,0.5],[1,0.5]];portConstraint=eastwest;strokeColor=#006658;top=0;left=0;right=0;bottom=0;labelBackgroundColor=none;fontColor=#5C5C5C;" parent="ab-andwz2Mcpa9uNdyiQ-23" vertex="1">
          <mxGeometry y="144" width="320" height="30" as="geometry" />
        </mxCell>
        <mxCell id="ab-andwz2Mcpa9uNdyiQ-37" value="" style="shape=partialRectangle;overflow=hidden;connectable=0;fillColor=none;strokeColor=#006658;top=0;left=0;bottom=0;right=0;labelBackgroundColor=none;fontColor=#5C5C5C;" parent="ab-andwz2Mcpa9uNdyiQ-36" vertex="1">
          <mxGeometry width="30" height="30" as="geometry">
            <mxRectangle width="30" height="30" as="alternateBounds" />
          </mxGeometry>
        </mxCell>
        <mxCell id="ab-andwz2Mcpa9uNdyiQ-38" value="loginName VARCHAR(50) COMMENT &#39;供应商的登录名&#39;" style="shape=partialRectangle;overflow=hidden;connectable=0;fillColor=none;align=left;strokeColor=#006658;top=0;left=0;bottom=0;right=0;spacingLeft=6;labelBackgroundColor=none;fontColor=#5C5C5C;" parent="ab-andwz2Mcpa9uNdyiQ-36" vertex="1">
          <mxGeometry x="30" width="290" height="30" as="geometry">
            <mxRectangle width="290" height="30" as="alternateBounds" />
          </mxGeometry>
        </mxCell>
        <mxCell id="ab-andwz2Mcpa9uNdyiQ-39" value="" style="shape=tableRow;horizontal=0;startSize=0;swimlaneHead=0;swimlaneBody=0;fillColor=none;collapsible=0;dropTarget=0;points=[[0,0.5],[1,0.5]];portConstraint=eastwest;strokeColor=#006658;top=0;left=0;right=0;bottom=0;labelBackgroundColor=none;fontColor=#5C5C5C;" parent="ab-andwz2Mcpa9uNdyiQ-23" vertex="1">
          <mxGeometry y="174" width="320" height="30" as="geometry" />
        </mxCell>
        <mxCell id="ab-andwz2Mcpa9uNdyiQ-40" value="" style="shape=partialRectangle;overflow=hidden;connectable=0;fillColor=none;strokeColor=#006658;top=0;left=0;bottom=0;right=0;labelBackgroundColor=none;fontColor=#5C5C5C;" parent="ab-andwz2Mcpa9uNdyiQ-39" vertex="1">
          <mxGeometry width="30" height="30" as="geometry">
            <mxRectangle width="30" height="30" as="alternateBounds" />
          </mxGeometry>
        </mxCell>
        <mxCell id="ab-andwz2Mcpa9uNdyiQ-41" value="password VARCHAR(50) COMMENT &#39;供应商的登录密码&#39;" style="shape=partialRectangle;overflow=hidden;connectable=0;fillColor=none;align=left;strokeColor=#006658;top=0;left=0;bottom=0;right=0;spacingLeft=6;labelBackgroundColor=none;fontColor=#5C5C5C;" parent="ab-andwz2Mcpa9uNdyiQ-39" vertex="1">
          <mxGeometry x="30" width="290" height="30" as="geometry">
            <mxRectangle width="290" height="30" as="alternateBounds" />
          </mxGeometry>
        </mxCell>
        <mxCell id="ab-andwz2Mcpa9uNdyiQ-42" value="" style="shape=tableRow;horizontal=0;startSize=0;swimlaneHead=0;swimlaneBody=0;fillColor=none;collapsible=0;dropTarget=0;points=[[0,0.5],[1,0.5]];portConstraint=eastwest;strokeColor=#006658;top=0;left=0;right=0;bottom=0;labelBackgroundColor=none;fontColor=#5C5C5C;" parent="ab-andwz2Mcpa9uNdyiQ-23" vertex="1">
          <mxGeometry y="204" width="320" height="30" as="geometry" />
        </mxCell>
        <mxCell id="ab-andwz2Mcpa9uNdyiQ-43" value="" style="shape=partialRectangle;overflow=hidden;connectable=0;fillColor=none;strokeColor=#006658;top=0;left=0;bottom=0;right=0;labelBackgroundColor=none;fontColor=#5C5C5C;" parent="ab-andwz2Mcpa9uNdyiQ-42" vertex="1">
          <mxGeometry width="30" height="30" as="geometry">
            <mxRectangle width="30" height="30" as="alternateBounds" />
          </mxGeometry>
        </mxCell>
        <mxCell id="ab-andwz2Mcpa9uNdyiQ-44" value="telephone VARCHAR(100) COMMENT &#39;供应商的联系电话&#39;" style="shape=partialRectangle;overflow=hidden;connectable=0;fillColor=none;align=left;strokeColor=#006658;top=0;left=0;bottom=0;right=0;spacingLeft=6;labelBackgroundColor=none;fontColor=#5C5C5C;" parent="ab-andwz2Mcpa9uNdyiQ-42" vertex="1">
          <mxGeometry x="30" width="290" height="30" as="geometry">
            <mxRectangle width="290" height="30" as="alternateBounds" />
          </mxGeometry>
        </mxCell>
        <mxCell id="ab-andwz2Mcpa9uNdyiQ-45" value="" style="shape=tableRow;horizontal=0;startSize=0;swimlaneHead=0;swimlaneBody=0;fillColor=none;collapsible=0;dropTarget=0;points=[[0,0.5],[1,0.5]];portConstraint=eastwest;strokeColor=#006658;top=0;left=0;right=0;bottom=0;labelBackgroundColor=none;fontColor=#5C5C5C;" parent="ab-andwz2Mcpa9uNdyiQ-23" vertex="1">
          <mxGeometry y="234" width="320" height="30" as="geometry" />
        </mxCell>
        <mxCell id="ab-andwz2Mcpa9uNdyiQ-46" value="" style="shape=partialRectangle;overflow=hidden;connectable=0;fillColor=none;strokeColor=#006658;top=0;left=0;bottom=0;right=0;labelBackgroundColor=none;fontColor=#5C5C5C;" parent="ab-andwz2Mcpa9uNdyiQ-45" vertex="1">
          <mxGeometry width="30" height="30" as="geometry">
            <mxRectangle width="30" height="30" as="alternateBounds" />
          </mxGeometry>
        </mxCell>
        <mxCell id="ab-andwz2Mcpa9uNdyiQ-47" value="zip VARCHAR(20) COMMENT &#39;供应商的邮编&#39;" style="shape=partialRectangle;overflow=hidden;connectable=0;fillColor=none;align=left;strokeColor=#006658;top=0;left=0;bottom=0;right=0;spacingLeft=6;labelBackgroundColor=none;fontColor=#5C5C5C;" parent="ab-andwz2Mcpa9uNdyiQ-45" vertex="1">
          <mxGeometry x="30" width="290" height="30" as="geometry">
            <mxRectangle width="290" height="30" as="alternateBounds" />
          </mxGeometry>
        </mxCell>
        <mxCell id="ab-andwz2Mcpa9uNdyiQ-48" value="" style="shape=tableRow;horizontal=0;startSize=0;swimlaneHead=0;swimlaneBody=0;fillColor=none;collapsible=0;dropTarget=0;points=[[0,0.5],[1,0.5]];portConstraint=eastwest;strokeColor=#006658;top=0;left=0;right=0;bottom=0;labelBackgroundColor=none;fontColor=#5C5C5C;" parent="ab-andwz2Mcpa9uNdyiQ-23" vertex="1">
          <mxGeometry y="264" width="320" height="30" as="geometry" />
        </mxCell>
        <mxCell id="ab-andwz2Mcpa9uNdyiQ-49" value="" style="shape=partialRectangle;overflow=hidden;connectable=0;fillColor=none;strokeColor=#006658;top=0;left=0;bottom=0;right=0;labelBackgroundColor=none;fontColor=#5C5C5C;" parent="ab-andwz2Mcpa9uNdyiQ-48" vertex="1">
          <mxGeometry width="30" height="30" as="geometry">
            <mxRectangle width="30" height="30" as="alternateBounds" />
          </mxGeometry>
        </mxCell>
        <mxCell id="ab-andwz2Mcpa9uNdyiQ-50" value="address VARCHAR(100) COMMENT &#39;供应商的地址&#39;" style="shape=partialRectangle;overflow=hidden;connectable=0;fillColor=none;align=left;strokeColor=#006658;top=0;left=0;bottom=0;right=0;spacingLeft=6;labelBackgroundColor=none;fontColor=#5C5C5C;" parent="ab-andwz2Mcpa9uNdyiQ-48" vertex="1">
          <mxGeometry x="30" width="290" height="30" as="geometry">
            <mxRectangle width="290" height="30" as="alternateBounds" />
          </mxGeometry>
        </mxCell>
        <mxCell id="ab-andwz2Mcpa9uNdyiQ-51" value="" style="shape=tableRow;horizontal=0;startSize=0;swimlaneHead=0;swimlaneBody=0;fillColor=none;collapsible=0;dropTarget=0;points=[[0,0.5],[1,0.5]];portConstraint=eastwest;strokeColor=#006658;top=0;left=0;right=0;bottom=0;labelBackgroundColor=none;fontColor=#5C5C5C;" parent="ab-andwz2Mcpa9uNdyiQ-23" vertex="1">
          <mxGeometry y="294" width="320" height="30" as="geometry" />
        </mxCell>
        <mxCell id="ab-andwz2Mcpa9uNdyiQ-52" value="" style="shape=partialRectangle;overflow=hidden;connectable=0;fillColor=none;strokeColor=#006658;top=0;left=0;bottom=0;right=0;labelBackgroundColor=none;fontColor=#5C5C5C;" parent="ab-andwz2Mcpa9uNdyiQ-51" vertex="1">
          <mxGeometry width="30" height="30" as="geometry">
            <mxRectangle width="30" height="30" as="alternateBounds" />
          </mxGeometry>
        </mxCell>
        <mxCell id="ab-andwz2Mcpa9uNdyiQ-53" value="email VARCHAR(100) COMMENT &#39;供应商的邮箱&#39;" style="shape=partialRectangle;overflow=hidden;connectable=0;fillColor=none;align=left;strokeColor=#006658;top=0;left=0;bottom=0;right=0;spacingLeft=6;labelBackgroundColor=none;fontColor=#5C5C5C;" parent="ab-andwz2Mcpa9uNdyiQ-51" vertex="1">
          <mxGeometry x="30" width="290" height="30" as="geometry">
            <mxRectangle width="290" height="30" as="alternateBounds" />
          </mxGeometry>
        </mxCell>
        <mxCell id="ab-andwz2Mcpa9uNdyiQ-54" value="" style="shape=tableRow;horizontal=0;startSize=0;swimlaneHead=0;swimlaneBody=0;fillColor=none;collapsible=0;dropTarget=0;points=[[0,0.5],[1,0.5]];portConstraint=eastwest;strokeColor=#006658;top=0;left=0;right=0;bottom=0;labelBackgroundColor=none;fontColor=#5C5C5C;" parent="ab-andwz2Mcpa9uNdyiQ-23" vertex="1">
          <mxGeometry y="324" width="320" height="30" as="geometry" />
        </mxCell>
        <mxCell id="ab-andwz2Mcpa9uNdyiQ-55" value="" style="shape=partialRectangle;overflow=hidden;connectable=0;fillColor=none;strokeColor=#006658;top=0;left=0;bottom=0;right=0;labelBackgroundColor=none;fontColor=#5C5C5C;" parent="ab-andwz2Mcpa9uNdyiQ-54" vertex="1">
          <mxGeometry width="30" height="30" as="geometry">
            <mxRectangle width="30" height="30" as="alternateBounds" />
          </mxGeometry>
        </mxCell>
        <mxCell id="ab-andwz2Mcpa9uNdyiQ-56" value="status CHAR(1) COMMENT &#39;供应商的状态&#39;" style="shape=partialRectangle;overflow=hidden;connectable=0;fillColor=none;align=left;strokeColor=#006658;top=0;left=0;bottom=0;right=0;spacingLeft=6;labelBackgroundColor=none;fontColor=#5C5C5C;" parent="ab-andwz2Mcpa9uNdyiQ-54" vertex="1">
          <mxGeometry x="30" width="290" height="30" as="geometry">
            <mxRectangle width="290" height="30" as="alternateBounds" />
          </mxGeometry>
        </mxCell>
        <mxCell id="ab-andwz2Mcpa9uNdyiQ-57" value="Purchaser" style="shape=table;startSize=30;container=1;collapsible=1;childLayout=tableLayout;fixedRows=1;rowLines=0;fontStyle=1;align=center;resizeLast=1;labelBackgroundColor=none;fillColor=#21C0A5;strokeColor=#006658;fontColor=#5C5C5C;" parent="1" vertex="1">
          <mxGeometry x="1970" y="634" width="320" height="420" as="geometry" />
        </mxCell>
        <mxCell id="ab-andwz2Mcpa9uNdyiQ-58" value="" style="shape=tableRow;horizontal=0;startSize=0;swimlaneHead=0;swimlaneBody=0;fillColor=none;collapsible=0;dropTarget=0;points=[[0,0.5],[1,0.5]];portConstraint=eastwest;strokeColor=#006658;top=0;left=0;right=0;bottom=1;labelBackgroundColor=none;fontColor=#5C5C5C;" parent="ab-andwz2Mcpa9uNdyiQ-57" vertex="1">
          <mxGeometry y="30" width="320" height="30" as="geometry" />
        </mxCell>
        <mxCell id="ab-andwz2Mcpa9uNdyiQ-59" value="PK" style="shape=partialRectangle;overflow=hidden;connectable=0;fillColor=none;strokeColor=#006658;top=0;left=0;bottom=0;right=0;fontStyle=1;labelBackgroundColor=none;fontColor=#5C5C5C;" parent="ab-andwz2Mcpa9uNdyiQ-58" vertex="1">
          <mxGeometry width="30" height="30" as="geometry">
            <mxRectangle width="30" height="30" as="alternateBounds" />
          </mxGeometry>
        </mxCell>
        <mxCell id="ab-andwz2Mcpa9uNdyiQ-60" value="purchaserId INT NOT NULL AUTO_INCREMENT COMMENT &#39;采购商的唯一标识&#39;" style="shape=partialRectangle;overflow=hidden;connectable=0;fillColor=none;align=left;strokeColor=#006658;top=0;left=0;bottom=0;right=0;spacingLeft=6;fontStyle=5;labelBackgroundColor=none;fontColor=#5C5C5C;" parent="ab-andwz2Mcpa9uNdyiQ-58" vertex="1">
          <mxGeometry x="30" width="290" height="30" as="geometry">
            <mxRectangle width="290" height="30" as="alternateBounds" />
          </mxGeometry>
        </mxCell>
        <mxCell id="ab-andwz2Mcpa9uNdyiQ-61" value="" style="shape=tableRow;horizontal=0;startSize=0;swimlaneHead=0;swimlaneBody=0;fillColor=none;collapsible=0;dropTarget=0;points=[[0,0.5],[1,0.5]];portConstraint=eastwest;strokeColor=#006658;top=0;left=0;right=0;bottom=0;labelBackgroundColor=none;fontColor=#5C5C5C;" parent="ab-andwz2Mcpa9uNdyiQ-57" vertex="1">
          <mxGeometry y="60" width="320" height="30" as="geometry" />
        </mxCell>
        <mxCell id="ab-andwz2Mcpa9uNdyiQ-62" value="" style="shape=partialRectangle;overflow=hidden;connectable=0;fillColor=none;strokeColor=#006658;top=0;left=0;bottom=0;right=0;labelBackgroundColor=none;fontColor=#5C5C5C;" parent="ab-andwz2Mcpa9uNdyiQ-61" vertex="1">
          <mxGeometry width="30" height="30" as="geometry">
            <mxRectangle width="30" height="30" as="alternateBounds" />
          </mxGeometry>
        </mxCell>
        <mxCell id="ab-andwz2Mcpa9uNdyiQ-63" value="purchaserNo VARCHAR(20) COMMENT &#39;采购商的编号&#39;" style="shape=partialRectangle;overflow=hidden;connectable=0;fillColor=none;align=left;strokeColor=#006658;top=0;left=0;bottom=0;right=0;spacingLeft=6;labelBackgroundColor=none;fontColor=#5C5C5C;" parent="ab-andwz2Mcpa9uNdyiQ-61" vertex="1">
          <mxGeometry x="30" width="290" height="30" as="geometry">
            <mxRectangle width="290" height="30" as="alternateBounds" />
          </mxGeometry>
        </mxCell>
        <mxCell id="ab-andwz2Mcpa9uNdyiQ-64" value="" style="shape=tableRow;horizontal=0;startSize=0;swimlaneHead=0;swimlaneBody=0;fillColor=none;collapsible=0;dropTarget=0;points=[[0,0.5],[1,0.5]];portConstraint=eastwest;strokeColor=#006658;top=0;left=0;right=0;bottom=0;labelBackgroundColor=none;fontColor=#5C5C5C;" parent="ab-andwz2Mcpa9uNdyiQ-57" vertex="1">
          <mxGeometry y="90" width="320" height="30" as="geometry" />
        </mxCell>
        <mxCell id="ab-andwz2Mcpa9uNdyiQ-65" value="" style="shape=partialRectangle;overflow=hidden;connectable=0;fillColor=none;strokeColor=#006658;top=0;left=0;bottom=0;right=0;labelBackgroundColor=none;fontColor=#5C5C5C;" parent="ab-andwz2Mcpa9uNdyiQ-64" vertex="1">
          <mxGeometry width="30" height="30" as="geometry">
            <mxRectangle width="30" height="30" as="alternateBounds" />
          </mxGeometry>
        </mxCell>
        <mxCell id="ab-andwz2Mcpa9uNdyiQ-66" value="purchaserName VARCHAR(100) NOT NULL COMMENT &#39;采购商的名称&#39;" style="shape=partialRectangle;overflow=hidden;connectable=0;fillColor=none;align=left;strokeColor=#006658;top=0;left=0;bottom=0;right=0;spacingLeft=6;labelBackgroundColor=none;fontColor=#5C5C5C;" parent="ab-andwz2Mcpa9uNdyiQ-64" vertex="1">
          <mxGeometry x="30" width="290" height="30" as="geometry">
            <mxRectangle width="290" height="30" as="alternateBounds" />
          </mxGeometry>
        </mxCell>
        <mxCell id="ab-andwz2Mcpa9uNdyiQ-67" value="" style="shape=tableRow;horizontal=0;startSize=0;swimlaneHead=0;swimlaneBody=0;fillColor=none;collapsible=0;dropTarget=0;points=[[0,0.5],[1,0.5]];portConstraint=eastwest;strokeColor=#006658;top=0;left=0;right=0;bottom=0;labelBackgroundColor=none;fontColor=#5C5C5C;" parent="ab-andwz2Mcpa9uNdyiQ-57" vertex="1">
          <mxGeometry y="120" width="320" height="30" as="geometry" />
        </mxCell>
        <mxCell id="ab-andwz2Mcpa9uNdyiQ-68" value="" style="shape=partialRectangle;overflow=hidden;connectable=0;fillColor=none;strokeColor=#006658;top=0;left=0;bottom=0;right=0;labelBackgroundColor=none;fontColor=#5C5C5C;" parent="ab-andwz2Mcpa9uNdyiQ-67" vertex="1">
          <mxGeometry width="30" height="30" as="geometry">
            <mxRectangle width="30" height="30" as="alternateBounds" />
          </mxGeometry>
        </mxCell>
        <mxCell id="ab-andwz2Mcpa9uNdyiQ-69" value="purchaserDesc VARCHAR(500) COMMENT &#39;采购商的描述信息&#39;" style="shape=partialRectangle;overflow=hidden;connectable=0;fillColor=none;align=left;strokeColor=#006658;top=0;left=0;bottom=0;right=0;spacingLeft=6;labelBackgroundColor=none;fontColor=#5C5C5C;" parent="ab-andwz2Mcpa9uNdyiQ-67" vertex="1">
          <mxGeometry x="30" width="290" height="30" as="geometry">
            <mxRectangle width="290" height="30" as="alternateBounds" />
          </mxGeometry>
        </mxCell>
        <mxCell id="ab-andwz2Mcpa9uNdyiQ-70" value="" style="shape=tableRow;horizontal=0;startSize=0;swimlaneHead=0;swimlaneBody=0;fillColor=none;collapsible=0;dropTarget=0;points=[[0,0.5],[1,0.5]];portConstraint=eastwest;strokeColor=#006658;top=0;left=0;right=0;bottom=0;labelBackgroundColor=none;fontColor=#5C5C5C;" parent="ab-andwz2Mcpa9uNdyiQ-57" vertex="1">
          <mxGeometry y="150" width="320" height="30" as="geometry" />
        </mxCell>
        <mxCell id="ab-andwz2Mcpa9uNdyiQ-71" value="" style="shape=partialRectangle;overflow=hidden;connectable=0;fillColor=none;strokeColor=#006658;top=0;left=0;bottom=0;right=0;labelBackgroundColor=none;fontColor=#5C5C5C;" parent="ab-andwz2Mcpa9uNdyiQ-70" vertex="1">
          <mxGeometry width="30" height="30" as="geometry">
            <mxRectangle width="30" height="30" as="alternateBounds" />
          </mxGeometry>
        </mxCell>
        <mxCell id="ab-andwz2Mcpa9uNdyiQ-72" value="loginName VARCHAR(50) COMMENT &#39;采购商的登录名&#39;" style="shape=partialRectangle;overflow=hidden;connectable=0;fillColor=none;align=left;strokeColor=#006658;top=0;left=0;bottom=0;right=0;spacingLeft=6;labelBackgroundColor=none;fontColor=#5C5C5C;" parent="ab-andwz2Mcpa9uNdyiQ-70" vertex="1">
          <mxGeometry x="30" width="290" height="30" as="geometry">
            <mxRectangle width="290" height="30" as="alternateBounds" />
          </mxGeometry>
        </mxCell>
        <mxCell id="ab-andwz2Mcpa9uNdyiQ-73" value="" style="shape=tableRow;horizontal=0;startSize=0;swimlaneHead=0;swimlaneBody=0;fillColor=none;collapsible=0;dropTarget=0;points=[[0,0.5],[1,0.5]];portConstraint=eastwest;strokeColor=#006658;top=0;left=0;right=0;bottom=0;labelBackgroundColor=none;fontColor=#5C5C5C;" parent="ab-andwz2Mcpa9uNdyiQ-57" vertex="1">
          <mxGeometry y="180" width="320" height="30" as="geometry" />
        </mxCell>
        <mxCell id="ab-andwz2Mcpa9uNdyiQ-74" value="" style="shape=partialRectangle;overflow=hidden;connectable=0;fillColor=none;strokeColor=#006658;top=0;left=0;bottom=0;right=0;labelBackgroundColor=none;fontColor=#5C5C5C;" parent="ab-andwz2Mcpa9uNdyiQ-73" vertex="1">
          <mxGeometry width="30" height="30" as="geometry">
            <mxRectangle width="30" height="30" as="alternateBounds" />
          </mxGeometry>
        </mxCell>
        <mxCell id="ab-andwz2Mcpa9uNdyiQ-75" value="password VARCHAR(50) COMMENT &#39;采购商的登录密码&#39;" style="shape=partialRectangle;overflow=hidden;connectable=0;fillColor=none;align=left;strokeColor=#006658;top=0;left=0;bottom=0;right=0;spacingLeft=6;labelBackgroundColor=none;fontColor=#5C5C5C;" parent="ab-andwz2Mcpa9uNdyiQ-73" vertex="1">
          <mxGeometry x="30" width="290" height="30" as="geometry">
            <mxRectangle width="290" height="30" as="alternateBounds" />
          </mxGeometry>
        </mxCell>
        <mxCell id="ab-andwz2Mcpa9uNdyiQ-76" value="" style="shape=tableRow;horizontal=0;startSize=0;swimlaneHead=0;swimlaneBody=0;fillColor=none;collapsible=0;dropTarget=0;points=[[0,0.5],[1,0.5]];portConstraint=eastwest;strokeColor=#006658;top=0;left=0;right=0;bottom=0;labelBackgroundColor=none;fontColor=#5C5C5C;" parent="ab-andwz2Mcpa9uNdyiQ-57" vertex="1">
          <mxGeometry y="210" width="320" height="30" as="geometry" />
        </mxCell>
        <mxCell id="ab-andwz2Mcpa9uNdyiQ-77" value="" style="shape=partialRectangle;overflow=hidden;connectable=0;fillColor=none;strokeColor=#006658;top=0;left=0;bottom=0;right=0;labelBackgroundColor=none;fontColor=#5C5C5C;" parent="ab-andwz2Mcpa9uNdyiQ-76" vertex="1">
          <mxGeometry width="30" height="30" as="geometry">
            <mxRectangle width="30" height="30" as="alternateBounds" />
          </mxGeometry>
        </mxCell>
        <mxCell id="ab-andwz2Mcpa9uNdyiQ-78" value="telephone VARCHAR(100) COMMENT &#39;采购商的联系电话&#39;" style="shape=partialRectangle;overflow=hidden;connectable=0;fillColor=none;align=left;strokeColor=#006658;top=0;left=0;bottom=0;right=0;spacingLeft=6;labelBackgroundColor=none;fontColor=#5C5C5C;" parent="ab-andwz2Mcpa9uNdyiQ-76" vertex="1">
          <mxGeometry x="30" width="290" height="30" as="geometry">
            <mxRectangle width="290" height="30" as="alternateBounds" />
          </mxGeometry>
        </mxCell>
        <mxCell id="ab-andwz2Mcpa9uNdyiQ-229" value="" style="shape=tableRow;horizontal=0;startSize=0;swimlaneHead=0;swimlaneBody=0;fillColor=none;collapsible=0;dropTarget=0;points=[[0,0.5],[1,0.5]];portConstraint=eastwest;strokeColor=#006658;top=0;left=0;right=0;bottom=1;labelBackgroundColor=none;fontColor=#5C5C5C;" parent="ab-andwz2Mcpa9uNdyiQ-57" vertex="1">
          <mxGeometry y="240" width="320" height="30" as="geometry" />
        </mxCell>
        <mxCell id="ab-andwz2Mcpa9uNdyiQ-230" value="PK" style="shape=partialRectangle;overflow=hidden;connectable=0;fillColor=none;strokeColor=#006658;top=0;left=0;bottom=0;right=0;fontStyle=1;labelBackgroundColor=none;fontColor=#5C5C5C;" parent="ab-andwz2Mcpa9uNdyiQ-229" vertex="1">
          <mxGeometry width="30" height="30" as="geometry">
            <mxRectangle width="30" height="30" as="alternateBounds" />
          </mxGeometry>
        </mxCell>
        <mxCell id="ab-andwz2Mcpa9uNdyiQ-231" value="goodsId INT NOT NULL COMMENT &#39;销售商品的ID&#39;" style="shape=partialRectangle;overflow=hidden;connectable=0;fillColor=none;align=left;strokeColor=#006658;top=0;left=0;bottom=0;right=0;spacingLeft=6;fontStyle=5;labelBackgroundColor=none;fontColor=#5C5C5C;" parent="ab-andwz2Mcpa9uNdyiQ-229" vertex="1">
          <mxGeometry x="30" width="290" height="30" as="geometry">
            <mxRectangle width="290" height="30" as="alternateBounds" />
          </mxGeometry>
        </mxCell>
        <mxCell id="ab-andwz2Mcpa9uNdyiQ-232" value="" style="shape=tableRow;horizontal=0;startSize=0;swimlaneHead=0;swimlaneBody=0;fillColor=none;collapsible=0;dropTarget=0;points=[[0,0.5],[1,0.5]];portConstraint=eastwest;strokeColor=#006658;top=0;left=0;right=0;bottom=1;labelBackgroundColor=none;fontColor=#5C5C5C;" parent="ab-andwz2Mcpa9uNdyiQ-57" vertex="1">
          <mxGeometry y="270" width="320" height="30" as="geometry" />
        </mxCell>
        <mxCell id="ab-andwz2Mcpa9uNdyiQ-233" value="PK" style="shape=partialRectangle;overflow=hidden;connectable=0;fillColor=none;strokeColor=#006658;top=0;left=0;bottom=0;right=0;fontStyle=1;labelBackgroundColor=none;fontColor=#5C5C5C;" parent="ab-andwz2Mcpa9uNdyiQ-232" vertex="1">
          <mxGeometry width="30" height="30" as="geometry">
            <mxRectangle width="30" height="30" as="alternateBounds" />
          </mxGeometry>
        </mxCell>
        <mxCell id="ab-andwz2Mcpa9uNdyiQ-234" value="salesId INT NOT NULL COMMENT &#39;销售单的唯一标识&#39;" style="shape=partialRectangle;overflow=hidden;connectable=0;fillColor=none;align=left;strokeColor=#006658;top=0;left=0;bottom=0;right=0;spacingLeft=6;fontStyle=5;labelBackgroundColor=none;fontColor=#5C5C5C;" parent="ab-andwz2Mcpa9uNdyiQ-232" vertex="1">
          <mxGeometry x="30" width="290" height="30" as="geometry">
            <mxRectangle width="290" height="30" as="alternateBounds" />
          </mxGeometry>
        </mxCell>
        <mxCell id="ab-andwz2Mcpa9uNdyiQ-79" value="" style="shape=tableRow;horizontal=0;startSize=0;swimlaneHead=0;swimlaneBody=0;fillColor=none;collapsible=0;dropTarget=0;points=[[0,0.5],[1,0.5]];portConstraint=eastwest;strokeColor=#006658;top=0;left=0;right=0;bottom=0;labelBackgroundColor=none;fontColor=#5C5C5C;" parent="ab-andwz2Mcpa9uNdyiQ-57" vertex="1">
          <mxGeometry y="300" width="320" height="30" as="geometry" />
        </mxCell>
        <mxCell id="ab-andwz2Mcpa9uNdyiQ-80" value="" style="shape=partialRectangle;overflow=hidden;connectable=0;fillColor=none;strokeColor=#006658;top=0;left=0;bottom=0;right=0;labelBackgroundColor=none;fontColor=#5C5C5C;" parent="ab-andwz2Mcpa9uNdyiQ-79" vertex="1">
          <mxGeometry width="30" height="30" as="geometry">
            <mxRectangle width="30" height="30" as="alternateBounds" />
          </mxGeometry>
        </mxCell>
        <mxCell id="ab-andwz2Mcpa9uNdyiQ-81" value="zip VARCHAR(20) COMMENT &#39;采购商的邮编&#39;" style="shape=partialRectangle;overflow=hidden;connectable=0;fillColor=none;align=left;strokeColor=#006658;top=0;left=0;bottom=0;right=0;spacingLeft=6;labelBackgroundColor=none;fontColor=#5C5C5C;" parent="ab-andwz2Mcpa9uNdyiQ-79" vertex="1">
          <mxGeometry x="30" width="290" height="30" as="geometry">
            <mxRectangle width="290" height="30" as="alternateBounds" />
          </mxGeometry>
        </mxCell>
        <mxCell id="ab-andwz2Mcpa9uNdyiQ-82" value="" style="shape=tableRow;horizontal=0;startSize=0;swimlaneHead=0;swimlaneBody=0;fillColor=none;collapsible=0;dropTarget=0;points=[[0,0.5],[1,0.5]];portConstraint=eastwest;strokeColor=#006658;top=0;left=0;right=0;bottom=0;labelBackgroundColor=none;fontColor=#5C5C5C;" parent="ab-andwz2Mcpa9uNdyiQ-57" vertex="1">
          <mxGeometry y="330" width="320" height="30" as="geometry" />
        </mxCell>
        <mxCell id="ab-andwz2Mcpa9uNdyiQ-83" value="" style="shape=partialRectangle;overflow=hidden;connectable=0;fillColor=none;strokeColor=#006658;top=0;left=0;bottom=0;right=0;labelBackgroundColor=none;fontColor=#5C5C5C;" parent="ab-andwz2Mcpa9uNdyiQ-82" vertex="1">
          <mxGeometry width="30" height="30" as="geometry">
            <mxRectangle width="30" height="30" as="alternateBounds" />
          </mxGeometry>
        </mxCell>
        <mxCell id="ab-andwz2Mcpa9uNdyiQ-84" value="address VARCHAR(100) COMMENT &#39;采购商的地址&#39;" style="shape=partialRectangle;overflow=hidden;connectable=0;fillColor=none;align=left;strokeColor=#006658;top=0;left=0;bottom=0;right=0;spacingLeft=6;labelBackgroundColor=none;fontColor=#5C5C5C;" parent="ab-andwz2Mcpa9uNdyiQ-82" vertex="1">
          <mxGeometry x="30" width="290" height="30" as="geometry">
            <mxRectangle width="290" height="30" as="alternateBounds" />
          </mxGeometry>
        </mxCell>
        <mxCell id="ab-andwz2Mcpa9uNdyiQ-85" value="" style="shape=tableRow;horizontal=0;startSize=0;swimlaneHead=0;swimlaneBody=0;fillColor=none;collapsible=0;dropTarget=0;points=[[0,0.5],[1,0.5]];portConstraint=eastwest;strokeColor=#006658;top=0;left=0;right=0;bottom=0;labelBackgroundColor=none;fontColor=#5C5C5C;" parent="ab-andwz2Mcpa9uNdyiQ-57" vertex="1">
          <mxGeometry y="360" width="320" height="30" as="geometry" />
        </mxCell>
        <mxCell id="ab-andwz2Mcpa9uNdyiQ-86" value="" style="shape=partialRectangle;overflow=hidden;connectable=0;fillColor=none;strokeColor=#006658;top=0;left=0;bottom=0;right=0;labelBackgroundColor=none;fontColor=#5C5C5C;" parent="ab-andwz2Mcpa9uNdyiQ-85" vertex="1">
          <mxGeometry width="30" height="30" as="geometry">
            <mxRectangle width="30" height="30" as="alternateBounds" />
          </mxGeometry>
        </mxCell>
        <mxCell id="ab-andwz2Mcpa9uNdyiQ-87" value="email VARCHAR(100) COMMENT &#39;采购商的邮箱&#39;" style="shape=partialRectangle;overflow=hidden;connectable=0;fillColor=none;align=left;strokeColor=#006658;top=0;left=0;bottom=0;right=0;spacingLeft=6;labelBackgroundColor=none;fontColor=#5C5C5C;" parent="ab-andwz2Mcpa9uNdyiQ-85" vertex="1">
          <mxGeometry x="30" width="290" height="30" as="geometry">
            <mxRectangle width="290" height="30" as="alternateBounds" />
          </mxGeometry>
        </mxCell>
        <mxCell id="ab-andwz2Mcpa9uNdyiQ-88" value="" style="shape=tableRow;horizontal=0;startSize=0;swimlaneHead=0;swimlaneBody=0;fillColor=none;collapsible=0;dropTarget=0;points=[[0,0.5],[1,0.5]];portConstraint=eastwest;strokeColor=#006658;top=0;left=0;right=0;bottom=0;labelBackgroundColor=none;fontColor=#5C5C5C;" parent="ab-andwz2Mcpa9uNdyiQ-57" vertex="1">
          <mxGeometry y="390" width="320" height="30" as="geometry" />
        </mxCell>
        <mxCell id="ab-andwz2Mcpa9uNdyiQ-89" value="" style="shape=partialRectangle;overflow=hidden;connectable=0;fillColor=none;strokeColor=#006658;top=0;left=0;bottom=0;right=0;labelBackgroundColor=none;fontColor=#5C5C5C;" parent="ab-andwz2Mcpa9uNdyiQ-88" vertex="1">
          <mxGeometry width="30" height="30" as="geometry">
            <mxRectangle width="30" height="30" as="alternateBounds" />
          </mxGeometry>
        </mxCell>
        <mxCell id="ab-andwz2Mcpa9uNdyiQ-90" value="status CHAR(1) COMMENT &#39;采购商的状态&#39;" style="shape=partialRectangle;overflow=hidden;connectable=0;fillColor=none;align=left;strokeColor=#006658;top=0;left=0;bottom=0;right=0;spacingLeft=6;labelBackgroundColor=none;fontColor=#5C5C5C;" parent="ab-andwz2Mcpa9uNdyiQ-88" vertex="1">
          <mxGeometry x="30" width="290" height="30" as="geometry">
            <mxRectangle width="290" height="30" as="alternateBounds" />
          </mxGeometry>
        </mxCell>
        <mxCell id="ab-andwz2Mcpa9uNdyiQ-91" value="Warehouse" style="shape=table;startSize=30;container=1;collapsible=1;childLayout=tableLayout;fixedRows=1;rowLines=0;fontStyle=1;align=center;resizeLast=1;labelBackgroundColor=none;fillColor=#21C0A5;strokeColor=#006658;fontColor=#5C5C5C;" parent="1" vertex="1">
          <mxGeometry x="1410" y="220" width="320" height="180" as="geometry" />
        </mxCell>
        <mxCell id="ab-andwz2Mcpa9uNdyiQ-92" value="" style="shape=tableRow;horizontal=0;startSize=0;swimlaneHead=0;swimlaneBody=0;fillColor=none;collapsible=0;dropTarget=0;points=[[0,0.5],[1,0.5]];portConstraint=eastwest;strokeColor=#006658;top=0;left=0;right=0;bottom=1;labelBackgroundColor=none;fontColor=#5C5C5C;" parent="ab-andwz2Mcpa9uNdyiQ-91" vertex="1">
          <mxGeometry y="30" width="320" height="30" as="geometry" />
        </mxCell>
        <mxCell id="ab-andwz2Mcpa9uNdyiQ-93" value="PK" style="shape=partialRectangle;overflow=hidden;connectable=0;fillColor=none;strokeColor=#006658;top=0;left=0;bottom=0;right=0;fontStyle=1;labelBackgroundColor=none;fontColor=#5C5C5C;" parent="ab-andwz2Mcpa9uNdyiQ-92" vertex="1">
          <mxGeometry width="30" height="30" as="geometry">
            <mxRectangle width="30" height="30" as="alternateBounds" />
          </mxGeometry>
        </mxCell>
        <mxCell id="ab-andwz2Mcpa9uNdyiQ-94" value="warehouseId INT NOT NULL AUTO_INCREMENT COMMENT &#39;仓库的唯一标识&#39;" style="shape=partialRectangle;overflow=hidden;connectable=0;fillColor=none;align=left;strokeColor=#006658;top=0;left=0;bottom=0;right=0;spacingLeft=6;fontStyle=5;labelBackgroundColor=none;fontColor=#5C5C5C;" parent="ab-andwz2Mcpa9uNdyiQ-92" vertex="1">
          <mxGeometry x="30" width="290" height="30" as="geometry">
            <mxRectangle width="290" height="30" as="alternateBounds" />
          </mxGeometry>
        </mxCell>
        <mxCell id="ab-andwz2Mcpa9uNdyiQ-95" value="" style="shape=tableRow;horizontal=0;startSize=0;swimlaneHead=0;swimlaneBody=0;fillColor=none;collapsible=0;dropTarget=0;points=[[0,0.5],[1,0.5]];portConstraint=eastwest;strokeColor=#006658;top=0;left=0;right=0;bottom=0;labelBackgroundColor=none;fontColor=#5C5C5C;" parent="ab-andwz2Mcpa9uNdyiQ-91" vertex="1">
          <mxGeometry y="60" width="320" height="30" as="geometry" />
        </mxCell>
        <mxCell id="ab-andwz2Mcpa9uNdyiQ-96" value="" style="shape=partialRectangle;overflow=hidden;connectable=0;fillColor=none;strokeColor=#006658;top=0;left=0;bottom=0;right=0;labelBackgroundColor=none;fontColor=#5C5C5C;" parent="ab-andwz2Mcpa9uNdyiQ-95" vertex="1">
          <mxGeometry width="30" height="30" as="geometry">
            <mxRectangle width="30" height="30" as="alternateBounds" />
          </mxGeometry>
        </mxCell>
        <mxCell id="ab-andwz2Mcpa9uNdyiQ-97" value="warehouseName VARCHAR(100) NOT NULL COMMENT &#39;仓库的名称&#39;" style="shape=partialRectangle;overflow=hidden;connectable=0;fillColor=none;align=left;strokeColor=#006658;top=0;left=0;bottom=0;right=0;spacingLeft=6;labelBackgroundColor=none;fontColor=#5C5C5C;" parent="ab-andwz2Mcpa9uNdyiQ-95" vertex="1">
          <mxGeometry x="30" width="290" height="30" as="geometry">
            <mxRectangle width="290" height="30" as="alternateBounds" />
          </mxGeometry>
        </mxCell>
        <mxCell id="ab-andwz2Mcpa9uNdyiQ-98" value="" style="shape=tableRow;horizontal=0;startSize=0;swimlaneHead=0;swimlaneBody=0;fillColor=none;collapsible=0;dropTarget=0;points=[[0,0.5],[1,0.5]];portConstraint=eastwest;strokeColor=#006658;top=0;left=0;right=0;bottom=0;labelBackgroundColor=none;fontColor=#5C5C5C;" parent="ab-andwz2Mcpa9uNdyiQ-91" vertex="1">
          <mxGeometry y="90" width="320" height="30" as="geometry" />
        </mxCell>
        <mxCell id="ab-andwz2Mcpa9uNdyiQ-99" value="" style="shape=partialRectangle;overflow=hidden;connectable=0;fillColor=none;strokeColor=#006658;top=0;left=0;bottom=0;right=0;labelBackgroundColor=none;fontColor=#5C5C5C;" parent="ab-andwz2Mcpa9uNdyiQ-98" vertex="1">
          <mxGeometry width="30" height="30" as="geometry">
            <mxRectangle width="30" height="30" as="alternateBounds" />
          </mxGeometry>
        </mxCell>
        <mxCell id="ab-andwz2Mcpa9uNdyiQ-100" value="warehouseLocation VARCHAR(200) NOT NULL COMMENT &#39;仓库的具体位置&#39;" style="shape=partialRectangle;overflow=hidden;connectable=0;fillColor=none;align=left;strokeColor=#006658;top=0;left=0;bottom=0;right=0;spacingLeft=6;labelBackgroundColor=none;fontColor=#5C5C5C;" parent="ab-andwz2Mcpa9uNdyiQ-98" vertex="1">
          <mxGeometry x="30" width="290" height="30" as="geometry">
            <mxRectangle width="290" height="30" as="alternateBounds" />
          </mxGeometry>
        </mxCell>
        <mxCell id="ab-andwz2Mcpa9uNdyiQ-101" value="" style="shape=tableRow;horizontal=0;startSize=0;swimlaneHead=0;swimlaneBody=0;fillColor=none;collapsible=0;dropTarget=0;points=[[0,0.5],[1,0.5]];portConstraint=eastwest;strokeColor=#006658;top=0;left=0;right=0;bottom=0;labelBackgroundColor=none;fontColor=#5C5C5C;" parent="ab-andwz2Mcpa9uNdyiQ-91" vertex="1">
          <mxGeometry y="120" width="320" height="30" as="geometry" />
        </mxCell>
        <mxCell id="ab-andwz2Mcpa9uNdyiQ-102" value="" style="shape=partialRectangle;overflow=hidden;connectable=0;fillColor=none;strokeColor=#006658;top=0;left=0;bottom=0;right=0;labelBackgroundColor=none;fontColor=#5C5C5C;" parent="ab-andwz2Mcpa9uNdyiQ-101" vertex="1">
          <mxGeometry width="30" height="30" as="geometry">
            <mxRectangle width="30" height="30" as="alternateBounds" />
          </mxGeometry>
        </mxCell>
        <mxCell id="ab-andwz2Mcpa9uNdyiQ-103" value="totalCapacity DECIMAL(10,2) NOT NULL COMMENT &#39;仓库的总容量&#39;" style="shape=partialRectangle;overflow=hidden;connectable=0;fillColor=none;align=left;strokeColor=#006658;top=0;left=0;bottom=0;right=0;spacingLeft=6;labelBackgroundColor=none;fontColor=#5C5C5C;" parent="ab-andwz2Mcpa9uNdyiQ-101" vertex="1">
          <mxGeometry x="30" width="290" height="30" as="geometry">
            <mxRectangle width="290" height="30" as="alternateBounds" />
          </mxGeometry>
        </mxCell>
        <mxCell id="ab-andwz2Mcpa9uNdyiQ-104" value="" style="shape=tableRow;horizontal=0;startSize=0;swimlaneHead=0;swimlaneBody=0;fillColor=none;collapsible=0;dropTarget=0;points=[[0,0.5],[1,0.5]];portConstraint=eastwest;strokeColor=#006658;top=0;left=0;right=0;bottom=0;labelBackgroundColor=none;fontColor=#5C5C5C;" parent="ab-andwz2Mcpa9uNdyiQ-91" vertex="1">
          <mxGeometry y="150" width="320" height="30" as="geometry" />
        </mxCell>
        <mxCell id="ab-andwz2Mcpa9uNdyiQ-105" value="" style="shape=partialRectangle;overflow=hidden;connectable=0;fillColor=none;strokeColor=#006658;top=0;left=0;bottom=0;right=0;labelBackgroundColor=none;fontColor=#5C5C5C;" parent="ab-andwz2Mcpa9uNdyiQ-104" vertex="1">
          <mxGeometry width="30" height="30" as="geometry">
            <mxRectangle width="30" height="30" as="alternateBounds" />
          </mxGeometry>
        </mxCell>
        <mxCell id="ab-andwz2Mcpa9uNdyiQ-106" value="availableCapacity DECIMAL(10,2) NOT NULL COMMENT &#39;仓库当前的可用容量&#39;" style="shape=partialRectangle;overflow=hidden;connectable=0;fillColor=none;align=left;strokeColor=#006658;top=0;left=0;bottom=0;right=0;spacingLeft=6;labelBackgroundColor=none;fontColor=#5C5C5C;" parent="ab-andwz2Mcpa9uNdyiQ-104" vertex="1">
          <mxGeometry x="30" width="290" height="30" as="geometry">
            <mxRectangle width="290" height="30" as="alternateBounds" />
          </mxGeometry>
        </mxCell>
        <mxCell id="ab-andwz2Mcpa9uNdyiQ-107" value="WarehouseGoods" style="shape=table;startSize=30;container=1;collapsible=1;childLayout=tableLayout;fixedRows=1;rowLines=0;fontStyle=1;align=center;resizeLast=1;labelBackgroundColor=none;fillColor=#21C0A5;strokeColor=#006658;fontColor=#5C5C5C;" parent="1" vertex="1">
          <mxGeometry x="1410" y="72" width="381" height="120" as="geometry" />
        </mxCell>
        <mxCell id="ab-andwz2Mcpa9uNdyiQ-108" value="" style="shape=tableRow;horizontal=0;startSize=0;swimlaneHead=0;swimlaneBody=0;fillColor=none;collapsible=0;dropTarget=0;points=[[0,0.5],[1,0.5]];portConstraint=eastwest;strokeColor=#006658;top=0;left=0;right=0;bottom=1;labelBackgroundColor=none;fontColor=#5C5C5C;" parent="ab-andwz2Mcpa9uNdyiQ-107" vertex="1">
          <mxGeometry y="30" width="381" height="30" as="geometry" />
        </mxCell>
        <mxCell id="ab-andwz2Mcpa9uNdyiQ-109" value="PK" style="shape=partialRectangle;overflow=hidden;connectable=0;fillColor=none;strokeColor=#006658;top=0;left=0;bottom=0;right=0;fontStyle=1;labelBackgroundColor=none;fontColor=#5C5C5C;" parent="ab-andwz2Mcpa9uNdyiQ-108" vertex="1">
          <mxGeometry width="30" height="30" as="geometry">
            <mxRectangle width="30" height="30" as="alternateBounds" />
          </mxGeometry>
        </mxCell>
        <mxCell id="ab-andwz2Mcpa9uNdyiQ-110" value="goodsId VARCHAR(1000) COMMENT &#39;仓库中存储的商品ID，以逗号分隔&#39;" style="shape=partialRectangle;overflow=hidden;connectable=0;fillColor=none;align=left;strokeColor=#006658;top=0;left=0;bottom=0;right=0;spacingLeft=6;fontStyle=5;labelBackgroundColor=none;fontColor=#5C5C5C;" parent="ab-andwz2Mcpa9uNdyiQ-108" vertex="1">
          <mxGeometry x="30" width="351" height="30" as="geometry">
            <mxRectangle width="351" height="30" as="alternateBounds" />
          </mxGeometry>
        </mxCell>
        <mxCell id="ab-andwz2Mcpa9uNdyiQ-111" value="" style="shape=tableRow;horizontal=0;startSize=0;swimlaneHead=0;swimlaneBody=0;fillColor=none;collapsible=0;dropTarget=0;points=[[0,0.5],[1,0.5]];portConstraint=eastwest;strokeColor=#006658;top=0;left=0;right=0;bottom=1;labelBackgroundColor=none;fontColor=#5C5C5C;" parent="ab-andwz2Mcpa9uNdyiQ-107" vertex="1">
          <mxGeometry y="60" width="381" height="30" as="geometry" />
        </mxCell>
        <mxCell id="ab-andwz2Mcpa9uNdyiQ-112" value="PK" style="shape=partialRectangle;overflow=hidden;connectable=0;fillColor=none;strokeColor=#006658;top=0;left=0;bottom=0;right=0;fontStyle=1;labelBackgroundColor=none;fontColor=#5C5C5C;" parent="ab-andwz2Mcpa9uNdyiQ-111" vertex="1">
          <mxGeometry width="30" height="30" as="geometry">
            <mxRectangle width="30" height="30" as="alternateBounds" />
          </mxGeometry>
        </mxCell>
        <mxCell id="ab-andwz2Mcpa9uNdyiQ-113" value="warehouseId INT NOT NULL COMMENT &#39;仓库的唯一标识&#39;" style="shape=partialRectangle;overflow=hidden;connectable=0;fillColor=none;align=left;strokeColor=#006658;top=0;left=0;bottom=0;right=0;spacingLeft=6;fontStyle=5;labelBackgroundColor=none;fontColor=#5C5C5C;" parent="ab-andwz2Mcpa9uNdyiQ-111" vertex="1">
          <mxGeometry x="30" width="351" height="30" as="geometry">
            <mxRectangle width="351" height="30" as="alternateBounds" />
          </mxGeometry>
        </mxCell>
        <mxCell id="ab-andwz2Mcpa9uNdyiQ-114" value="" style="shape=tableRow;horizontal=0;startSize=0;swimlaneHead=0;swimlaneBody=0;fillColor=none;collapsible=0;dropTarget=0;points=[[0,0.5],[1,0.5]];portConstraint=eastwest;strokeColor=#006658;top=0;left=0;right=0;bottom=0;labelBackgroundColor=none;fontColor=#5C5C5C;" parent="ab-andwz2Mcpa9uNdyiQ-107" vertex="1">
          <mxGeometry y="90" width="381" height="30" as="geometry" />
        </mxCell>
        <mxCell id="ab-andwz2Mcpa9uNdyiQ-115" value="" style="shape=partialRectangle;overflow=hidden;connectable=0;fillColor=none;strokeColor=#006658;top=0;left=0;bottom=0;right=0;labelBackgroundColor=none;fontColor=#5C5C5C;" parent="ab-andwz2Mcpa9uNdyiQ-114" vertex="1">
          <mxGeometry width="30" height="30" as="geometry">
            <mxRectangle width="30" height="30" as="alternateBounds" />
          </mxGeometry>
        </mxCell>
        <mxCell id="ab-andwz2Mcpa9uNdyiQ-116" value="goodsQuantity VARCHAR(1000) COMMENT &#39;仓库中存储的商品数量，以逗号分隔，与goodsId一一对应&#39;" style="shape=partialRectangle;overflow=hidden;connectable=0;fillColor=none;align=left;strokeColor=#006658;top=0;left=0;bottom=0;right=0;spacingLeft=6;labelBackgroundColor=none;fontColor=#5C5C5C;" parent="ab-andwz2Mcpa9uNdyiQ-114" vertex="1">
          <mxGeometry x="30" width="351" height="30" as="geometry">
            <mxRectangle width="351" height="30" as="alternateBounds" />
          </mxGeometry>
        </mxCell>
        <mxCell id="ab-andwz2Mcpa9uNdyiQ-117" value="User" style="shape=table;startSize=29;container=1;collapsible=1;childLayout=tableLayout;fixedRows=1;rowLines=0;fontStyle=1;align=center;resizeLast=1;labelBackgroundColor=none;fillColor=#21C0A5;strokeColor=#006658;fontColor=#5C5C5C;" parent="1" vertex="1">
          <mxGeometry x="1236" y="802" width="320" height="395" as="geometry" />
        </mxCell>
        <mxCell id="ab-andwz2Mcpa9uNdyiQ-118" value="" style="shape=tableRow;horizontal=0;startSize=0;swimlaneHead=0;swimlaneBody=0;fillColor=none;collapsible=0;dropTarget=0;points=[[0,0.5],[1,0.5]];portConstraint=eastwest;strokeColor=#006658;top=0;left=0;right=0;bottom=1;labelBackgroundColor=none;fontColor=#5C5C5C;" parent="ab-andwz2Mcpa9uNdyiQ-117" vertex="1">
          <mxGeometry y="29" width="320" height="30" as="geometry" />
        </mxCell>
        <mxCell id="ab-andwz2Mcpa9uNdyiQ-119" value="PK" style="shape=partialRectangle;overflow=hidden;connectable=0;fillColor=none;strokeColor=#006658;top=0;left=0;bottom=0;right=0;fontStyle=1;labelBackgroundColor=none;fontColor=#5C5C5C;" parent="ab-andwz2Mcpa9uNdyiQ-118" vertex="1">
          <mxGeometry width="30" height="30" as="geometry">
            <mxRectangle width="30" height="30" as="alternateBounds" />
          </mxGeometry>
        </mxCell>
        <mxCell id="ab-andwz2Mcpa9uNdyiQ-120" value="userId INT NOT NULL AUTO_INCREMENT COMMENT &#39;用户的唯一标识&#39;" style="shape=partialRectangle;overflow=hidden;connectable=0;fillColor=none;align=left;strokeColor=#006658;top=0;left=0;bottom=0;right=0;spacingLeft=6;fontStyle=5;labelBackgroundColor=none;fontColor=#5C5C5C;" parent="ab-andwz2Mcpa9uNdyiQ-118" vertex="1">
          <mxGeometry x="30" width="290" height="30" as="geometry">
            <mxRectangle width="290" height="30" as="alternateBounds" />
          </mxGeometry>
        </mxCell>
        <mxCell id="ab-andwz2Mcpa9uNdyiQ-121" value="" style="shape=tableRow;horizontal=0;startSize=0;swimlaneHead=0;swimlaneBody=0;fillColor=none;collapsible=0;dropTarget=0;points=[[0,0.5],[1,0.5]];portConstraint=eastwest;strokeColor=#006658;top=0;left=0;right=0;bottom=0;labelBackgroundColor=none;fontColor=#5C5C5C;" parent="ab-andwz2Mcpa9uNdyiQ-117" vertex="1">
          <mxGeometry y="59" width="320" height="30" as="geometry" />
        </mxCell>
        <mxCell id="ab-andwz2Mcpa9uNdyiQ-122" value="" style="shape=partialRectangle;overflow=hidden;connectable=0;fillColor=none;strokeColor=#006658;top=0;left=0;bottom=0;right=0;labelBackgroundColor=none;fontColor=#5C5C5C;" parent="ab-andwz2Mcpa9uNdyiQ-121" vertex="1">
          <mxGeometry width="30" height="30" as="geometry">
            <mxRectangle width="30" height="30" as="alternateBounds" />
          </mxGeometry>
        </mxCell>
        <mxCell id="ab-andwz2Mcpa9uNdyiQ-123" value="username VARCHAR(50) NOT NULL COMMENT &#39;用户的登录名&#39;" style="shape=partialRectangle;overflow=hidden;connectable=0;fillColor=none;align=left;strokeColor=#006658;top=0;left=0;bottom=0;right=0;spacingLeft=6;labelBackgroundColor=none;fontColor=#5C5C5C;" parent="ab-andwz2Mcpa9uNdyiQ-121" vertex="1">
          <mxGeometry x="30" width="290" height="30" as="geometry">
            <mxRectangle width="290" height="30" as="alternateBounds" />
          </mxGeometry>
        </mxCell>
        <mxCell id="ab-andwz2Mcpa9uNdyiQ-124" value="" style="shape=tableRow;horizontal=0;startSize=0;swimlaneHead=0;swimlaneBody=0;fillColor=none;collapsible=0;dropTarget=0;points=[[0,0.5],[1,0.5]];portConstraint=eastwest;strokeColor=#006658;top=0;left=0;right=0;bottom=0;labelBackgroundColor=none;fontColor=#5C5C5C;" parent="ab-andwz2Mcpa9uNdyiQ-117" vertex="1">
          <mxGeometry y="89" width="320" height="30" as="geometry" />
        </mxCell>
        <mxCell id="ab-andwz2Mcpa9uNdyiQ-125" value="" style="shape=partialRectangle;overflow=hidden;connectable=0;fillColor=none;strokeColor=#006658;top=0;left=0;bottom=0;right=0;labelBackgroundColor=none;fontColor=#5C5C5C;" parent="ab-andwz2Mcpa9uNdyiQ-124" vertex="1">
          <mxGeometry width="30" height="30" as="geometry">
            <mxRectangle width="30" height="30" as="alternateBounds" />
          </mxGeometry>
        </mxCell>
        <mxCell id="ab-andwz2Mcpa9uNdyiQ-126" value="password VARCHAR(50) NOT NULL COMMENT &#39;用户的登录密码&#39;" style="shape=partialRectangle;overflow=hidden;connectable=0;fillColor=none;align=left;strokeColor=#006658;top=0;left=0;bottom=0;right=0;spacingLeft=6;labelBackgroundColor=none;fontColor=#5C5C5C;" parent="ab-andwz2Mcpa9uNdyiQ-124" vertex="1">
          <mxGeometry x="30" width="290" height="30" as="geometry">
            <mxRectangle width="290" height="30" as="alternateBounds" />
          </mxGeometry>
        </mxCell>
        <mxCell id="ab-andwz2Mcpa9uNdyiQ-127" value="" style="shape=tableRow;horizontal=0;startSize=0;swimlaneHead=0;swimlaneBody=0;fillColor=none;collapsible=0;dropTarget=0;points=[[0,0.5],[1,0.5]];portConstraint=eastwest;strokeColor=#006658;top=0;left=0;right=0;bottom=0;labelBackgroundColor=none;fontColor=#5C5C5C;" parent="ab-andwz2Mcpa9uNdyiQ-117" vertex="1">
          <mxGeometry y="119" width="320" height="30" as="geometry" />
        </mxCell>
        <mxCell id="ab-andwz2Mcpa9uNdyiQ-128" value="" style="shape=partialRectangle;overflow=hidden;connectable=0;fillColor=none;strokeColor=#006658;top=0;left=0;bottom=0;right=0;labelBackgroundColor=none;fontColor=#5C5C5C;" parent="ab-andwz2Mcpa9uNdyiQ-127" vertex="1">
          <mxGeometry width="30" height="30" as="geometry">
            <mxRectangle width="30" height="30" as="alternateBounds" />
          </mxGeometry>
        </mxCell>
        <mxCell id="ab-andwz2Mcpa9uNdyiQ-129" value="name VARCHAR(50) NOT NULL COMMENT &#39;用户的姓名&#39;" style="shape=partialRectangle;overflow=hidden;connectable=0;fillColor=none;align=left;strokeColor=#006658;top=0;left=0;bottom=0;right=0;spacingLeft=6;labelBackgroundColor=none;fontColor=#5C5C5C;" parent="ab-andwz2Mcpa9uNdyiQ-127" vertex="1">
          <mxGeometry x="30" width="290" height="30" as="geometry">
            <mxRectangle width="290" height="30" as="alternateBounds" />
          </mxGeometry>
        </mxCell>
        <mxCell id="ab-andwz2Mcpa9uNdyiQ-130" value="" style="shape=tableRow;horizontal=0;startSize=0;swimlaneHead=0;swimlaneBody=0;fillColor=none;collapsible=0;dropTarget=0;points=[[0,0.5],[1,0.5]];portConstraint=eastwest;strokeColor=#006658;top=0;left=0;right=0;bottom=0;labelBackgroundColor=none;fontColor=#5C5C5C;" parent="ab-andwz2Mcpa9uNdyiQ-117" vertex="1">
          <mxGeometry y="149" width="320" height="30" as="geometry" />
        </mxCell>
        <mxCell id="ab-andwz2Mcpa9uNdyiQ-131" value="" style="shape=partialRectangle;overflow=hidden;connectable=0;fillColor=none;strokeColor=#006658;top=0;left=0;bottom=0;right=0;labelBackgroundColor=none;fontColor=#5C5C5C;" parent="ab-andwz2Mcpa9uNdyiQ-130" vertex="1">
          <mxGeometry width="30" height="30" as="geometry">
            <mxRectangle width="30" height="30" as="alternateBounds" />
          </mxGeometry>
        </mxCell>
        <mxCell id="ab-andwz2Mcpa9uNdyiQ-132" value="gender CHAR(1) COMMENT &#39;用户的性别&#39;" style="shape=partialRectangle;overflow=hidden;connectable=0;fillColor=none;align=left;strokeColor=#006658;top=0;left=0;bottom=0;right=0;spacingLeft=6;labelBackgroundColor=none;fontColor=#5C5C5C;" parent="ab-andwz2Mcpa9uNdyiQ-130" vertex="1">
          <mxGeometry x="30" width="290" height="30" as="geometry">
            <mxRectangle width="290" height="30" as="alternateBounds" />
          </mxGeometry>
        </mxCell>
        <mxCell id="ab-andwz2Mcpa9uNdyiQ-133" value="" style="shape=tableRow;horizontal=0;startSize=0;swimlaneHead=0;swimlaneBody=0;fillColor=none;collapsible=0;dropTarget=0;points=[[0,0.5],[1,0.5]];portConstraint=eastwest;strokeColor=#006658;top=0;left=0;right=0;bottom=0;labelBackgroundColor=none;fontColor=#5C5C5C;" parent="ab-andwz2Mcpa9uNdyiQ-117" vertex="1">
          <mxGeometry y="179" width="320" height="30" as="geometry" />
        </mxCell>
        <mxCell id="ab-andwz2Mcpa9uNdyiQ-134" value="" style="shape=partialRectangle;overflow=hidden;connectable=0;fillColor=none;strokeColor=#006658;top=0;left=0;bottom=0;right=0;labelBackgroundColor=none;fontColor=#5C5C5C;" parent="ab-andwz2Mcpa9uNdyiQ-133" vertex="1">
          <mxGeometry width="30" height="30" as="geometry">
            <mxRectangle width="30" height="30" as="alternateBounds" />
          </mxGeometry>
        </mxCell>
        <mxCell id="ab-andwz2Mcpa9uNdyiQ-135" value="age INT COMMENT &#39;用户的年龄&#39;" style="shape=partialRectangle;overflow=hidden;connectable=0;fillColor=none;align=left;strokeColor=#006658;top=0;left=0;bottom=0;right=0;spacingLeft=6;labelBackgroundColor=none;fontColor=#5C5C5C;" parent="ab-andwz2Mcpa9uNdyiQ-133" vertex="1">
          <mxGeometry x="30" width="290" height="30" as="geometry">
            <mxRectangle width="290" height="30" as="alternateBounds" />
          </mxGeometry>
        </mxCell>
        <mxCell id="ab-andwz2Mcpa9uNdyiQ-136" value="" style="shape=tableRow;horizontal=0;startSize=0;swimlaneHead=0;swimlaneBody=0;fillColor=none;collapsible=0;dropTarget=0;points=[[0,0.5],[1,0.5]];portConstraint=eastwest;strokeColor=#006658;top=0;left=0;right=0;bottom=0;labelBackgroundColor=none;fontColor=#5C5C5C;" parent="ab-andwz2Mcpa9uNdyiQ-117" vertex="1">
          <mxGeometry y="209" width="320" height="30" as="geometry" />
        </mxCell>
        <mxCell id="ab-andwz2Mcpa9uNdyiQ-137" value="" style="shape=partialRectangle;overflow=hidden;connectable=0;fillColor=none;strokeColor=#006658;top=0;left=0;bottom=0;right=0;labelBackgroundColor=none;fontColor=#5C5C5C;" parent="ab-andwz2Mcpa9uNdyiQ-136" vertex="1">
          <mxGeometry width="30" height="30" as="geometry">
            <mxRectangle width="30" height="30" as="alternateBounds" />
          </mxGeometry>
        </mxCell>
        <mxCell id="ab-andwz2Mcpa9uNdyiQ-138" value="phone VARCHAR(20) COMMENT &#39;用户的联系电话&#39;" style="shape=partialRectangle;overflow=hidden;connectable=0;fillColor=none;align=left;strokeColor=#006658;top=0;left=0;bottom=0;right=0;spacingLeft=6;labelBackgroundColor=none;fontColor=#5C5C5C;" parent="ab-andwz2Mcpa9uNdyiQ-136" vertex="1">
          <mxGeometry x="30" width="290" height="30" as="geometry">
            <mxRectangle width="290" height="30" as="alternateBounds" />
          </mxGeometry>
        </mxCell>
        <mxCell id="ab-andwz2Mcpa9uNdyiQ-139" value="" style="shape=tableRow;horizontal=0;startSize=0;swimlaneHead=0;swimlaneBody=0;fillColor=none;collapsible=0;dropTarget=0;points=[[0,0.5],[1,0.5]];portConstraint=eastwest;strokeColor=#006658;top=0;left=0;right=0;bottom=0;labelBackgroundColor=none;fontColor=#5C5C5C;" parent="ab-andwz2Mcpa9uNdyiQ-117" vertex="1">
          <mxGeometry y="239" width="320" height="30" as="geometry" />
        </mxCell>
        <mxCell id="ab-andwz2Mcpa9uNdyiQ-140" value="" style="shape=partialRectangle;overflow=hidden;connectable=0;fillColor=none;strokeColor=#006658;top=0;left=0;bottom=0;right=0;labelBackgroundColor=none;fontColor=#5C5C5C;" parent="ab-andwz2Mcpa9uNdyiQ-139" vertex="1">
          <mxGeometry width="30" height="30" as="geometry">
            <mxRectangle width="30" height="30" as="alternateBounds" />
          </mxGeometry>
        </mxCell>
        <mxCell id="ab-andwz2Mcpa9uNdyiQ-141" value="email VARCHAR(100) COMMENT &#39;用户的邮箱&#39;" style="shape=partialRectangle;overflow=hidden;connectable=0;fillColor=none;align=left;strokeColor=#006658;top=0;left=0;bottom=0;right=0;spacingLeft=6;labelBackgroundColor=none;fontColor=#5C5C5C;" parent="ab-andwz2Mcpa9uNdyiQ-139" vertex="1">
          <mxGeometry x="30" width="290" height="30" as="geometry">
            <mxRectangle width="290" height="30" as="alternateBounds" />
          </mxGeometry>
        </mxCell>
        <mxCell id="ab-andwz2Mcpa9uNdyiQ-142" value="" style="shape=tableRow;horizontal=0;startSize=0;swimlaneHead=0;swimlaneBody=0;fillColor=none;collapsible=0;dropTarget=0;points=[[0,0.5],[1,0.5]];portConstraint=eastwest;strokeColor=#006658;top=0;left=0;right=0;bottom=0;labelBackgroundColor=none;fontColor=#5C5C5C;" parent="ab-andwz2Mcpa9uNdyiQ-117" vertex="1">
          <mxGeometry y="269" width="320" height="30" as="geometry" />
        </mxCell>
        <mxCell id="ab-andwz2Mcpa9uNdyiQ-143" value="" style="shape=partialRectangle;overflow=hidden;connectable=0;fillColor=none;strokeColor=#006658;top=0;left=0;bottom=0;right=0;labelBackgroundColor=none;fontColor=#5C5C5C;" parent="ab-andwz2Mcpa9uNdyiQ-142" vertex="1">
          <mxGeometry width="30" height="30" as="geometry">
            <mxRectangle width="30" height="30" as="alternateBounds" />
          </mxGeometry>
        </mxCell>
        <mxCell id="ab-andwz2Mcpa9uNdyiQ-144" value="role VARCHAR(50) NOT NULL COMMENT &#39;用户的角色&#39;" style="shape=partialRectangle;overflow=hidden;connectable=0;fillColor=none;align=left;strokeColor=#006658;top=0;left=0;bottom=0;right=0;spacingLeft=6;labelBackgroundColor=none;fontColor=#5C5C5C;" parent="ab-andwz2Mcpa9uNdyiQ-142" vertex="1">
          <mxGeometry x="30" width="290" height="30" as="geometry">
            <mxRectangle width="290" height="30" as="alternateBounds" />
          </mxGeometry>
        </mxCell>
        <mxCell id="ab-andwz2Mcpa9uNdyiQ-145" value="" style="shape=tableRow;horizontal=0;startSize=0;swimlaneHead=0;swimlaneBody=0;fillColor=none;collapsible=0;dropTarget=0;points=[[0,0.5],[1,0.5]];portConstraint=eastwest;strokeColor=#006658;top=0;left=0;right=0;bottom=0;labelBackgroundColor=none;fontColor=#5C5C5C;" parent="ab-andwz2Mcpa9uNdyiQ-117" vertex="1">
          <mxGeometry y="299" width="320" height="20" as="geometry" />
        </mxCell>
        <mxCell id="ab-andwz2Mcpa9uNdyiQ-146" value="" style="shape=partialRectangle;overflow=hidden;connectable=0;fillColor=none;strokeColor=#006658;top=0;left=0;bottom=0;right=0;labelBackgroundColor=none;fontColor=#5C5C5C;" parent="ab-andwz2Mcpa9uNdyiQ-145" vertex="1">
          <mxGeometry width="30" height="20" as="geometry">
            <mxRectangle width="30" height="20" as="alternateBounds" />
          </mxGeometry>
        </mxCell>
        <mxCell id="ab-andwz2Mcpa9uNdyiQ-147" value="status CHAR(1) NOT NULL COMMENT &#39;用户的状态&#39;" style="shape=partialRectangle;overflow=hidden;connectable=0;fillColor=none;align=left;strokeColor=#006658;top=0;left=0;bottom=0;right=0;spacingLeft=6;labelBackgroundColor=none;fontColor=#5C5C5C;" parent="ab-andwz2Mcpa9uNdyiQ-145" vertex="1">
          <mxGeometry x="30" width="290" height="20" as="geometry">
            <mxRectangle width="290" height="20" as="alternateBounds" />
          </mxGeometry>
        </mxCell>
        <mxCell id="ab-andwz2Mcpa9uNdyiQ-148" value="" style="shape=tableRow;horizontal=0;startSize=0;swimlaneHead=0;swimlaneBody=0;fillColor=none;collapsible=0;dropTarget=0;points=[[0,0.5],[1,0.5]];portConstraint=eastwest;strokeColor=#006658;top=0;left=0;right=0;bottom=0;labelBackgroundColor=none;fontColor=#5C5C5C;" parent="ab-andwz2Mcpa9uNdyiQ-117" vertex="1">
          <mxGeometry y="319" width="320" height="30" as="geometry" />
        </mxCell>
        <mxCell id="ab-andwz2Mcpa9uNdyiQ-149" value="" style="shape=partialRectangle;overflow=hidden;connectable=0;fillColor=none;strokeColor=#006658;top=0;left=0;bottom=0;right=0;labelBackgroundColor=none;fontColor=#5C5C5C;" parent="ab-andwz2Mcpa9uNdyiQ-148" vertex="1">
          <mxGeometry width="30" height="30" as="geometry">
            <mxRectangle width="30" height="30" as="alternateBounds" />
          </mxGeometry>
        </mxCell>
        <mxCell id="ab-andwz2Mcpa9uNdyiQ-150" value="createTime DATETIME NOT NULL DEFAULT CURRENT_TIMESTAMP COMMENT &#39;用户创建的时间&#39;" style="shape=partialRectangle;overflow=hidden;connectable=0;fillColor=none;align=left;strokeColor=#006658;top=0;left=0;bottom=0;right=0;spacingLeft=6;labelBackgroundColor=none;fontColor=#5C5C5C;" parent="ab-andwz2Mcpa9uNdyiQ-148" vertex="1">
          <mxGeometry x="30" width="290" height="30" as="geometry">
            <mxRectangle width="290" height="30" as="alternateBounds" />
          </mxGeometry>
        </mxCell>
        <mxCell id="ab-andwz2Mcpa9uNdyiQ-151" value="" style="shape=tableRow;horizontal=0;startSize=0;swimlaneHead=0;swimlaneBody=0;fillColor=none;collapsible=0;dropTarget=0;points=[[0,0.5],[1,0.5]];portConstraint=eastwest;strokeColor=#006658;top=0;left=0;right=0;bottom=0;labelBackgroundColor=none;fontColor=#5C5C5C;" parent="ab-andwz2Mcpa9uNdyiQ-117" vertex="1">
          <mxGeometry y="349" width="320" height="30" as="geometry" />
        </mxCell>
        <mxCell id="ab-andwz2Mcpa9uNdyiQ-152" value="" style="shape=partialRectangle;overflow=hidden;connectable=0;fillColor=none;strokeColor=#006658;top=0;left=0;bottom=0;right=0;labelBackgroundColor=none;fontColor=#5C5C5C;" parent="ab-andwz2Mcpa9uNdyiQ-151" vertex="1">
          <mxGeometry width="30" height="30" as="geometry">
            <mxRectangle width="30" height="30" as="alternateBounds" />
          </mxGeometry>
        </mxCell>
        <mxCell id="ab-andwz2Mcpa9uNdyiQ-153" value="updateTime DATETIME NOT NULL DEFAULT CURRENT_TIMESTAMP ON UPDATE CURRENT_TIMESTAMP COMMENT &#39;用户最后一次更新的时间&#39;" style="shape=partialRectangle;overflow=hidden;connectable=0;fillColor=none;align=left;strokeColor=#006658;top=0;left=0;bottom=0;right=0;spacingLeft=6;labelBackgroundColor=none;fontColor=#5C5C5C;" parent="ab-andwz2Mcpa9uNdyiQ-151" vertex="1">
          <mxGeometry x="30" width="290" height="30" as="geometry">
            <mxRectangle width="290" height="30" as="alternateBounds" />
          </mxGeometry>
        </mxCell>
        <mxCell id="ab-andwz2Mcpa9uNdyiQ-154" value="GoodsIn" style="shape=table;startSize=30;container=1;collapsible=1;childLayout=tableLayout;fixedRows=1;rowLines=0;fontStyle=1;align=center;resizeLast=1;labelBackgroundColor=none;fillColor=#21C0A5;strokeColor=#006658;fontColor=#5C5C5C;" parent="1" vertex="1">
          <mxGeometry x="1000" y="210" width="337.357177734375" height="390" as="geometry">
            <mxRectangle x="1000" y="210" width="80" height="30" as="alternateBounds" />
          </mxGeometry>
        </mxCell>
        <mxCell id="ab-andwz2Mcpa9uNdyiQ-155" value="" style="shape=tableRow;horizontal=0;startSize=0;swimlaneHead=0;swimlaneBody=0;fillColor=none;collapsible=0;dropTarget=0;points=[[0,0.5],[1,0.5]];portConstraint=eastwest;strokeColor=#006658;top=0;left=0;right=0;bottom=1;labelBackgroundColor=none;fontColor=#5C5C5C;" parent="ab-andwz2Mcpa9uNdyiQ-154" vertex="1">
          <mxGeometry y="30" width="337.357177734375" height="30" as="geometry" />
        </mxCell>
        <mxCell id="ab-andwz2Mcpa9uNdyiQ-156" value="PK" style="shape=partialRectangle;overflow=hidden;connectable=0;fillColor=none;strokeColor=#006658;top=0;left=0;bottom=0;right=0;fontStyle=1;labelBackgroundColor=none;fontColor=#5C5C5C;" parent="ab-andwz2Mcpa9uNdyiQ-155" vertex="1">
          <mxGeometry width="30" height="30" as="geometry">
            <mxRectangle width="30" height="30" as="alternateBounds" />
          </mxGeometry>
        </mxCell>
        <mxCell id="ab-andwz2Mcpa9uNdyiQ-157" value="warehouseId INT NOT NULL COMMENT &#39;入库商品所在的仓库ID&#39;" style="shape=partialRectangle;overflow=hidden;connectable=0;fillColor=none;align=left;strokeColor=#006658;top=0;left=0;bottom=0;right=0;spacingLeft=6;fontStyle=5;labelBackgroundColor=none;fontColor=#5C5C5C;" parent="ab-andwz2Mcpa9uNdyiQ-155" vertex="1">
          <mxGeometry x="30" width="307.357177734375" height="30" as="geometry">
            <mxRectangle width="307.357177734375" height="30" as="alternateBounds" />
          </mxGeometry>
        </mxCell>
        <mxCell id="ab-andwz2Mcpa9uNdyiQ-158" value="" style="shape=tableRow;horizontal=0;startSize=0;swimlaneHead=0;swimlaneBody=0;fillColor=none;collapsible=0;dropTarget=0;points=[[0,0.5],[1,0.5]];portConstraint=eastwest;strokeColor=#006658;top=0;left=0;right=0;bottom=1;labelBackgroundColor=none;fontColor=#5C5C5C;" parent="ab-andwz2Mcpa9uNdyiQ-154" vertex="1">
          <mxGeometry y="60" width="337.357177734375" height="30" as="geometry" />
        </mxCell>
        <mxCell id="ab-andwz2Mcpa9uNdyiQ-159" value="PK" style="shape=partialRectangle;overflow=hidden;connectable=0;fillColor=none;strokeColor=#006658;top=0;left=0;bottom=0;right=0;fontStyle=1;labelBackgroundColor=none;fontColor=#5C5C5C;" parent="ab-andwz2Mcpa9uNdyiQ-158" vertex="1">
          <mxGeometry width="30" height="30" as="geometry">
            <mxRectangle width="30" height="30" as="alternateBounds" />
          </mxGeometry>
        </mxCell>
        <mxCell id="ab-andwz2Mcpa9uNdyiQ-160" value="supplierId INT NOT NULL COMMENT &#39;供应商的ID&#39;" style="shape=partialRectangle;overflow=hidden;connectable=0;fillColor=none;align=left;strokeColor=#006658;top=0;left=0;bottom=0;right=0;spacingLeft=6;fontStyle=5;labelBackgroundColor=none;fontColor=#5C5C5C;" parent="ab-andwz2Mcpa9uNdyiQ-158" vertex="1">
          <mxGeometry x="30" width="307.357177734375" height="30" as="geometry">
            <mxRectangle width="307.357177734375" height="30" as="alternateBounds" />
          </mxGeometry>
        </mxCell>
        <mxCell id="ab-andwz2Mcpa9uNdyiQ-161" value="" style="shape=tableRow;horizontal=0;startSize=0;swimlaneHead=0;swimlaneBody=0;fillColor=none;collapsible=0;dropTarget=0;points=[[0,0.5],[1,0.5]];portConstraint=eastwest;strokeColor=#006658;top=0;left=0;right=0;bottom=1;labelBackgroundColor=none;fontColor=#5C5C5C;" parent="ab-andwz2Mcpa9uNdyiQ-154" vertex="1">
          <mxGeometry y="90" width="337.357177734375" height="30" as="geometry" />
        </mxCell>
        <mxCell id="ab-andwz2Mcpa9uNdyiQ-162" value="PK" style="shape=partialRectangle;overflow=hidden;connectable=0;fillColor=none;strokeColor=#006658;top=0;left=0;bottom=0;right=0;fontStyle=1;labelBackgroundColor=none;fontColor=#5C5C5C;" parent="ab-andwz2Mcpa9uNdyiQ-161" vertex="1">
          <mxGeometry width="30" height="30" as="geometry">
            <mxRectangle width="30" height="30" as="alternateBounds" />
          </mxGeometry>
        </mxCell>
        <mxCell id="ab-andwz2Mcpa9uNdyiQ-163" value="goodsInId INT NOT NULL AUTO_INCREMENT COMMENT &#39;入库单的唯一标识&#39;" style="shape=partialRectangle;overflow=hidden;connectable=0;fillColor=none;align=left;strokeColor=#006658;top=0;left=0;bottom=0;right=0;spacingLeft=6;fontStyle=5;labelBackgroundColor=none;fontColor=#5C5C5C;" parent="ab-andwz2Mcpa9uNdyiQ-161" vertex="1">
          <mxGeometry x="30" width="307.357177734375" height="30" as="geometry">
            <mxRectangle width="307.357177734375" height="30" as="alternateBounds" />
          </mxGeometry>
        </mxCell>
        <mxCell id="ab-andwz2Mcpa9uNdyiQ-164" value="" style="shape=tableRow;horizontal=0;startSize=0;swimlaneHead=0;swimlaneBody=0;fillColor=none;collapsible=0;dropTarget=0;points=[[0,0.5],[1,0.5]];portConstraint=eastwest;strokeColor=#006658;top=0;left=0;right=0;bottom=0;labelBackgroundColor=none;fontColor=#5C5C5C;" parent="ab-andwz2Mcpa9uNdyiQ-154" vertex="1">
          <mxGeometry y="120" width="337.357177734375" height="30" as="geometry" />
        </mxCell>
        <mxCell id="ab-andwz2Mcpa9uNdyiQ-165" value="" style="shape=partialRectangle;overflow=hidden;connectable=0;fillColor=none;strokeColor=#006658;top=0;left=0;bottom=0;right=0;labelBackgroundColor=none;fontColor=#5C5C5C;" parent="ab-andwz2Mcpa9uNdyiQ-164" vertex="1">
          <mxGeometry width="30" height="30" as="geometry">
            <mxRectangle width="30" height="30" as="alternateBounds" />
          </mxGeometry>
        </mxCell>
        <mxCell id="ab-andwz2Mcpa9uNdyiQ-166" value="goodsInNo VARCHAR(20) NOT NULL COMMENT &#39;入库单的编号&#39;" style="shape=partialRectangle;overflow=hidden;connectable=0;fillColor=none;align=left;strokeColor=#006658;top=0;left=0;bottom=0;right=0;spacingLeft=6;labelBackgroundColor=none;fontColor=#5C5C5C;" parent="ab-andwz2Mcpa9uNdyiQ-164" vertex="1">
          <mxGeometry x="30" width="307.357177734375" height="30" as="geometry">
            <mxRectangle width="307.357177734375" height="30" as="alternateBounds" />
          </mxGeometry>
        </mxCell>
        <mxCell id="ab-andwz2Mcpa9uNdyiQ-167" value="" style="shape=tableRow;horizontal=0;startSize=0;swimlaneHead=0;swimlaneBody=0;fillColor=none;collapsible=0;dropTarget=0;points=[[0,0.5],[1,0.5]];portConstraint=eastwest;strokeColor=#006658;top=0;left=0;right=0;bottom=0;labelBackgroundColor=none;fontColor=#5C5C5C;" parent="ab-andwz2Mcpa9uNdyiQ-154" vertex="1">
          <mxGeometry y="150" width="337.357177734375" height="30" as="geometry" />
        </mxCell>
        <mxCell id="ab-andwz2Mcpa9uNdyiQ-168" value="" style="shape=partialRectangle;overflow=hidden;connectable=0;fillColor=none;strokeColor=#006658;top=0;left=0;bottom=0;right=0;labelBackgroundColor=none;fontColor=#5C5C5C;" parent="ab-andwz2Mcpa9uNdyiQ-167" vertex="1">
          <mxGeometry width="30" height="30" as="geometry">
            <mxRectangle width="30" height="30" as="alternateBounds" />
          </mxGeometry>
        </mxCell>
        <mxCell id="ab-andwz2Mcpa9uNdyiQ-169" value="supplierName VARCHAR(100) NOT NULL COMMENT &#39;供应商的名称&#39;" style="shape=partialRectangle;overflow=hidden;connectable=0;fillColor=none;align=left;strokeColor=#006658;top=0;left=0;bottom=0;right=0;spacingLeft=6;labelBackgroundColor=none;fontColor=#5C5C5C;" parent="ab-andwz2Mcpa9uNdyiQ-167" vertex="1">
          <mxGeometry x="30" width="307.357177734375" height="30" as="geometry">
            <mxRectangle width="307.357177734375" height="30" as="alternateBounds" />
          </mxGeometry>
        </mxCell>
        <mxCell id="ab-andwz2Mcpa9uNdyiQ-170" value="" style="shape=tableRow;horizontal=0;startSize=0;swimlaneHead=0;swimlaneBody=0;fillColor=none;collapsible=0;dropTarget=0;points=[[0,0.5],[1,0.5]];portConstraint=eastwest;strokeColor=#006658;top=0;left=0;right=0;bottom=0;labelBackgroundColor=none;fontColor=#5C5C5C;" parent="ab-andwz2Mcpa9uNdyiQ-154" vertex="1">
          <mxGeometry y="180" width="337.357177734375" height="30" as="geometry" />
        </mxCell>
        <mxCell id="ab-andwz2Mcpa9uNdyiQ-171" value="" style="shape=partialRectangle;overflow=hidden;connectable=0;fillColor=none;strokeColor=#006658;top=0;left=0;bottom=0;right=0;labelBackgroundColor=none;fontColor=#5C5C5C;" parent="ab-andwz2Mcpa9uNdyiQ-170" vertex="1">
          <mxGeometry width="30" height="30" as="geometry">
            <mxRectangle width="30" height="30" as="alternateBounds" />
          </mxGeometry>
        </mxCell>
        <mxCell id="ab-andwz2Mcpa9uNdyiQ-172" value="goodsPrice DECIMAL(10,2) NOT NULL COMMENT &#39;入库商品的单价&#39;" style="shape=partialRectangle;overflow=hidden;connectable=0;fillColor=none;align=left;strokeColor=#006658;top=0;left=0;bottom=0;right=0;spacingLeft=6;labelBackgroundColor=none;fontColor=#5C5C5C;" parent="ab-andwz2Mcpa9uNdyiQ-170" vertex="1">
          <mxGeometry x="30" width="307.357177734375" height="30" as="geometry">
            <mxRectangle width="307.357177734375" height="30" as="alternateBounds" />
          </mxGeometry>
        </mxCell>
        <mxCell id="ab-andwz2Mcpa9uNdyiQ-173" value="" style="shape=tableRow;horizontal=0;startSize=0;swimlaneHead=0;swimlaneBody=0;fillColor=none;collapsible=0;dropTarget=0;points=[[0,0.5],[1,0.5]];portConstraint=eastwest;strokeColor=#006658;top=0;left=0;right=0;bottom=0;labelBackgroundColor=none;fontColor=#5C5C5C;" parent="ab-andwz2Mcpa9uNdyiQ-154" vertex="1">
          <mxGeometry y="210" width="337.357177734375" height="30" as="geometry" />
        </mxCell>
        <mxCell id="ab-andwz2Mcpa9uNdyiQ-174" value="" style="shape=partialRectangle;overflow=hidden;connectable=0;fillColor=none;strokeColor=#006658;top=0;left=0;bottom=0;right=0;labelBackgroundColor=none;fontColor=#5C5C5C;" parent="ab-andwz2Mcpa9uNdyiQ-173" vertex="1">
          <mxGeometry width="30" height="30" as="geometry">
            <mxRectangle width="30" height="30" as="alternateBounds" />
          </mxGeometry>
        </mxCell>
        <mxCell id="ab-andwz2Mcpa9uNdyiQ-175" value="goodsAmount DECIMAL(10,2) NOT NULL COMMENT &#39;入库商品的总金额&#39;" style="shape=partialRectangle;overflow=hidden;connectable=0;fillColor=none;align=left;strokeColor=#006658;top=0;left=0;bottom=0;right=0;spacingLeft=6;labelBackgroundColor=none;fontColor=#5C5C5C;" parent="ab-andwz2Mcpa9uNdyiQ-173" vertex="1">
          <mxGeometry x="30" width="307.357177734375" height="30" as="geometry">
            <mxRectangle width="307.357177734375" height="30" as="alternateBounds" />
          </mxGeometry>
        </mxCell>
        <mxCell id="ab-andwz2Mcpa9uNdyiQ-176" value="" style="shape=tableRow;horizontal=0;startSize=0;swimlaneHead=0;swimlaneBody=0;fillColor=none;collapsible=0;dropTarget=0;points=[[0,0.5],[1,0.5]];portConstraint=eastwest;strokeColor=#006658;top=0;left=0;right=0;bottom=0;labelBackgroundColor=none;fontColor=#5C5C5C;" parent="ab-andwz2Mcpa9uNdyiQ-154" vertex="1">
          <mxGeometry y="240" width="337.357177734375" height="30" as="geometry" />
        </mxCell>
        <mxCell id="ab-andwz2Mcpa9uNdyiQ-177" value="" style="shape=partialRectangle;overflow=hidden;connectable=0;fillColor=none;strokeColor=#006658;top=0;left=0;bottom=0;right=0;labelBackgroundColor=none;fontColor=#5C5C5C;" parent="ab-andwz2Mcpa9uNdyiQ-176" vertex="1">
          <mxGeometry width="30" height="30" as="geometry">
            <mxRectangle width="30" height="30" as="alternateBounds" />
          </mxGeometry>
        </mxCell>
        <mxCell id="ab-andwz2Mcpa9uNdyiQ-178" value="goodsInTime DATETIME NOT NULL COMMENT &#39;商品入库的时间&#39;" style="shape=partialRectangle;overflow=hidden;connectable=0;fillColor=none;align=left;strokeColor=#006658;top=0;left=0;bottom=0;right=0;spacingLeft=6;labelBackgroundColor=none;fontColor=#5C5C5C;" parent="ab-andwz2Mcpa9uNdyiQ-176" vertex="1">
          <mxGeometry x="30" width="307.357177734375" height="30" as="geometry">
            <mxRectangle width="307.357177734375" height="30" as="alternateBounds" />
          </mxGeometry>
        </mxCell>
        <mxCell id="ab-andwz2Mcpa9uNdyiQ-179" value="" style="shape=tableRow;horizontal=0;startSize=0;swimlaneHead=0;swimlaneBody=0;fillColor=none;collapsible=0;dropTarget=0;points=[[0,0.5],[1,0.5]];portConstraint=eastwest;strokeColor=#006658;top=0;left=0;right=0;bottom=0;labelBackgroundColor=none;fontColor=#5C5C5C;" parent="ab-andwz2Mcpa9uNdyiQ-154" vertex="1">
          <mxGeometry y="270" width="337.357177734375" height="30" as="geometry" />
        </mxCell>
        <mxCell id="ab-andwz2Mcpa9uNdyiQ-180" value="" style="shape=partialRectangle;overflow=hidden;connectable=0;fillColor=none;strokeColor=#006658;top=0;left=0;bottom=0;right=0;labelBackgroundColor=none;fontColor=#5C5C5C;" parent="ab-andwz2Mcpa9uNdyiQ-179" vertex="1">
          <mxGeometry width="30" height="30" as="geometry">
            <mxRectangle width="30" height="30" as="alternateBounds" />
          </mxGeometry>
        </mxCell>
        <mxCell id="ab-andwz2Mcpa9uNdyiQ-181" value="warehouseName VARCHAR(100) NOT NULL COMMENT &#39;入库商品所在的仓库名称&#39;" style="shape=partialRectangle;overflow=hidden;connectable=0;fillColor=none;align=left;strokeColor=#006658;top=0;left=0;bottom=0;right=0;spacingLeft=6;labelBackgroundColor=none;fontColor=#5C5C5C;" parent="ab-andwz2Mcpa9uNdyiQ-179" vertex="1">
          <mxGeometry x="30" width="307.357177734375" height="30" as="geometry">
            <mxRectangle width="307.357177734375" height="30" as="alternateBounds" />
          </mxGeometry>
        </mxCell>
        <mxCell id="ab-andwz2Mcpa9uNdyiQ-182" value="" style="shape=tableRow;horizontal=0;startSize=0;swimlaneHead=0;swimlaneBody=0;fillColor=none;collapsible=0;dropTarget=0;points=[[0,0.5],[1,0.5]];portConstraint=eastwest;strokeColor=#006658;top=0;left=0;right=0;bottom=0;labelBackgroundColor=none;fontColor=#5C5C5C;" parent="ab-andwz2Mcpa9uNdyiQ-154" vertex="1">
          <mxGeometry y="300" width="337.357177734375" height="30" as="geometry" />
        </mxCell>
        <mxCell id="ab-andwz2Mcpa9uNdyiQ-183" value="" style="shape=partialRectangle;overflow=hidden;connectable=0;fillColor=none;strokeColor=#006658;top=0;left=0;bottom=0;right=0;labelBackgroundColor=none;fontColor=#5C5C5C;" parent="ab-andwz2Mcpa9uNdyiQ-182" vertex="1">
          <mxGeometry width="30" height="30" as="geometry">
            <mxRectangle width="30" height="30" as="alternateBounds" />
          </mxGeometry>
        </mxCell>
        <mxCell id="ab-andwz2Mcpa9uNdyiQ-184" value="operatorId INT NOT NULL COMMENT &#39;执行入库操作的用户ID&#39;" style="shape=partialRectangle;overflow=hidden;connectable=0;fillColor=none;align=left;strokeColor=#006658;top=0;left=0;bottom=0;right=0;spacingLeft=6;labelBackgroundColor=none;fontColor=#5C5C5C;" parent="ab-andwz2Mcpa9uNdyiQ-182" vertex="1">
          <mxGeometry x="30" width="307.357177734375" height="30" as="geometry">
            <mxRectangle width="307.357177734375" height="30" as="alternateBounds" />
          </mxGeometry>
        </mxCell>
        <mxCell id="ab-andwz2Mcpa9uNdyiQ-185" value="" style="shape=tableRow;horizontal=0;startSize=0;swimlaneHead=0;swimlaneBody=0;fillColor=none;collapsible=0;dropTarget=0;points=[[0,0.5],[1,0.5]];portConstraint=eastwest;strokeColor=#006658;top=0;left=0;right=0;bottom=0;labelBackgroundColor=none;fontColor=#5C5C5C;" parent="ab-andwz2Mcpa9uNdyiQ-154" vertex="1">
          <mxGeometry y="330" width="337.357177734375" height="30" as="geometry" />
        </mxCell>
        <mxCell id="ab-andwz2Mcpa9uNdyiQ-186" value="" style="shape=partialRectangle;overflow=hidden;connectable=0;fillColor=none;strokeColor=#006658;top=0;left=0;bottom=0;right=0;labelBackgroundColor=none;fontColor=#5C5C5C;" parent="ab-andwz2Mcpa9uNdyiQ-185" vertex="1">
          <mxGeometry width="30" height="30" as="geometry">
            <mxRectangle width="30" height="30" as="alternateBounds" />
          </mxGeometry>
        </mxCell>
        <mxCell id="ab-andwz2Mcpa9uNdyiQ-187" value="operatorName VARCHAR(50) NOT NULL COMMENT &#39;执行入库操作的用户名称&#39;" style="shape=partialRectangle;overflow=hidden;connectable=0;fillColor=none;align=left;strokeColor=#006658;top=0;left=0;bottom=0;right=0;spacingLeft=6;labelBackgroundColor=none;fontColor=#5C5C5C;" parent="ab-andwz2Mcpa9uNdyiQ-185" vertex="1">
          <mxGeometry x="30" width="307.357177734375" height="30" as="geometry">
            <mxRectangle width="307.357177734375" height="30" as="alternateBounds" />
          </mxGeometry>
        </mxCell>
        <mxCell id="ab-andwz2Mcpa9uNdyiQ-188" value="" style="shape=tableRow;horizontal=0;startSize=0;swimlaneHead=0;swimlaneBody=0;fillColor=none;collapsible=0;dropTarget=0;points=[[0,0.5],[1,0.5]];portConstraint=eastwest;strokeColor=#006658;top=0;left=0;right=0;bottom=0;labelBackgroundColor=none;fontColor=#5C5C5C;" parent="ab-andwz2Mcpa9uNdyiQ-154" vertex="1">
          <mxGeometry y="360" width="337.357177734375" height="30" as="geometry" />
        </mxCell>
        <mxCell id="ab-andwz2Mcpa9uNdyiQ-189" value="" style="shape=partialRectangle;overflow=hidden;connectable=0;fillColor=none;strokeColor=#006658;top=0;left=0;bottom=0;right=0;labelBackgroundColor=none;fontColor=#5C5C5C;" parent="ab-andwz2Mcpa9uNdyiQ-188" vertex="1">
          <mxGeometry width="30" height="30" as="geometry">
            <mxRectangle width="30" height="30" as="alternateBounds" />
          </mxGeometry>
        </mxCell>
        <mxCell id="ab-andwz2Mcpa9uNdyiQ-190" value="remark VARCHAR(500) COMMENT &#39;入库单的备注信息&#39;" style="shape=partialRectangle;overflow=hidden;connectable=0;fillColor=none;align=left;strokeColor=#006658;top=0;left=0;bottom=0;right=0;spacingLeft=6;labelBackgroundColor=none;fontColor=#5C5C5C;" parent="ab-andwz2Mcpa9uNdyiQ-188" vertex="1">
          <mxGeometry x="30" width="307.357177734375" height="30" as="geometry">
            <mxRectangle width="307.357177734375" height="30" as="alternateBounds" />
          </mxGeometry>
        </mxCell>
        <mxCell id="ab-andwz2Mcpa9uNdyiQ-191" value="GoodsOut" style="shape=table;startSize=32;container=1;collapsible=1;childLayout=tableLayout;fixedRows=1;rowLines=0;fontStyle=1;align=center;resizeLast=1;labelBackgroundColor=none;fillColor=#21C0A5;strokeColor=#006658;fontColor=#5C5C5C;" parent="1" vertex="1">
          <mxGeometry x="1832" y="203" width="420" height="392" as="geometry" />
        </mxCell>
        <mxCell id="ab-andwz2Mcpa9uNdyiQ-192" value="" style="shape=tableRow;horizontal=0;startSize=0;swimlaneHead=0;swimlaneBody=0;fillColor=none;collapsible=0;dropTarget=0;points=[[0,0.5],[1,0.5]];portConstraint=eastwest;strokeColor=#006658;top=0;left=0;right=0;bottom=1;labelBackgroundColor=none;fontColor=#5C5C5C;" parent="ab-andwz2Mcpa9uNdyiQ-191" vertex="1">
          <mxGeometry y="32" width="420" height="30" as="geometry" />
        </mxCell>
        <mxCell id="ab-andwz2Mcpa9uNdyiQ-193" value="PK" style="shape=partialRectangle;overflow=hidden;connectable=0;fillColor=none;strokeColor=#006658;top=0;left=0;bottom=0;right=0;fontStyle=1;labelBackgroundColor=none;fontColor=#5C5C5C;" parent="ab-andwz2Mcpa9uNdyiQ-192" vertex="1">
          <mxGeometry width="30" height="30" as="geometry">
            <mxRectangle width="30" height="30" as="alternateBounds" />
          </mxGeometry>
        </mxCell>
        <mxCell id="ab-andwz2Mcpa9uNdyiQ-194" value="warehouseId INT NOT NULL COMMENT &#39;销售商品出库的仓库ID&#39;" style="shape=partialRectangle;overflow=hidden;connectable=0;fillColor=none;align=left;strokeColor=#006658;top=0;left=0;bottom=0;right=0;spacingLeft=6;fontStyle=5;labelBackgroundColor=none;fontColor=#5C5C5C;" parent="ab-andwz2Mcpa9uNdyiQ-192" vertex="1">
          <mxGeometry x="30" width="390" height="30" as="geometry">
            <mxRectangle width="390" height="30" as="alternateBounds" />
          </mxGeometry>
        </mxCell>
        <mxCell id="ab-andwz2Mcpa9uNdyiQ-195" value="" style="shape=tableRow;horizontal=0;startSize=0;swimlaneHead=0;swimlaneBody=0;fillColor=none;collapsible=0;dropTarget=0;points=[[0,0.5],[1,0.5]];portConstraint=eastwest;strokeColor=#006658;top=0;left=0;right=0;bottom=1;labelBackgroundColor=none;fontColor=#5C5C5C;" parent="ab-andwz2Mcpa9uNdyiQ-191" vertex="1">
          <mxGeometry y="62" width="420" height="30" as="geometry" />
        </mxCell>
        <mxCell id="ab-andwz2Mcpa9uNdyiQ-196" value="PK" style="shape=partialRectangle;overflow=hidden;connectable=0;fillColor=none;strokeColor=#006658;top=0;left=0;bottom=0;right=0;fontStyle=1;labelBackgroundColor=none;fontColor=#5C5C5C;" parent="ab-andwz2Mcpa9uNdyiQ-195" vertex="1">
          <mxGeometry width="30" height="30" as="geometry">
            <mxRectangle width="30" height="30" as="alternateBounds" />
          </mxGeometry>
        </mxCell>
        <mxCell id="ab-andwz2Mcpa9uNdyiQ-197" value="purchaserId INT NOT NULL COMMENT &#39;采购商的ID&#39;" style="shape=partialRectangle;overflow=hidden;connectable=0;fillColor=none;align=left;strokeColor=#006658;top=0;left=0;bottom=0;right=0;spacingLeft=6;fontStyle=5;labelBackgroundColor=none;fontColor=#5C5C5C;" parent="ab-andwz2Mcpa9uNdyiQ-195" vertex="1">
          <mxGeometry x="30" width="390" height="30" as="geometry">
            <mxRectangle width="390" height="30" as="alternateBounds" />
          </mxGeometry>
        </mxCell>
        <mxCell id="ab-andwz2Mcpa9uNdyiQ-198" value="" style="shape=tableRow;horizontal=0;startSize=0;swimlaneHead=0;swimlaneBody=0;fillColor=none;collapsible=0;dropTarget=0;points=[[0,0.5],[1,0.5]];portConstraint=eastwest;strokeColor=#006658;top=0;left=0;right=0;bottom=1;labelBackgroundColor=none;fontColor=#5C5C5C;" parent="ab-andwz2Mcpa9uNdyiQ-191" vertex="1">
          <mxGeometry y="92" width="420" height="30" as="geometry" />
        </mxCell>
        <mxCell id="ab-andwz2Mcpa9uNdyiQ-199" value="PK" style="shape=partialRectangle;overflow=hidden;connectable=0;fillColor=none;strokeColor=#006658;top=0;left=0;bottom=0;right=0;fontStyle=1;labelBackgroundColor=none;fontColor=#5C5C5C;" parent="ab-andwz2Mcpa9uNdyiQ-198" vertex="1">
          <mxGeometry width="30" height="30" as="geometry">
            <mxRectangle width="30" height="30" as="alternateBounds" />
          </mxGeometry>
        </mxCell>
        <mxCell id="ab-andwz2Mcpa9uNdyiQ-200" value="salesId INT NOT NULL AUTO_INCREMENT COMMENT &#39;销售单的唯一标识&#39;" style="shape=partialRectangle;overflow=hidden;connectable=0;fillColor=none;align=left;strokeColor=#006658;top=0;left=0;bottom=0;right=0;spacingLeft=6;fontStyle=5;labelBackgroundColor=none;fontColor=#5C5C5C;" parent="ab-andwz2Mcpa9uNdyiQ-198" vertex="1">
          <mxGeometry x="30" width="390" height="30" as="geometry">
            <mxRectangle width="390" height="30" as="alternateBounds" />
          </mxGeometry>
        </mxCell>
        <mxCell id="ab-andwz2Mcpa9uNdyiQ-201" value="" style="shape=tableRow;horizontal=0;startSize=0;swimlaneHead=0;swimlaneBody=0;fillColor=none;collapsible=0;dropTarget=0;points=[[0,0.5],[1,0.5]];portConstraint=eastwest;strokeColor=#006658;top=0;left=0;right=0;bottom=0;labelBackgroundColor=none;fontColor=#5C5C5C;" parent="ab-andwz2Mcpa9uNdyiQ-191" vertex="1">
          <mxGeometry y="122" width="420" height="30" as="geometry" />
        </mxCell>
        <mxCell id="ab-andwz2Mcpa9uNdyiQ-202" value="" style="shape=partialRectangle;overflow=hidden;connectable=0;fillColor=none;strokeColor=#006658;top=0;left=0;bottom=0;right=0;labelBackgroundColor=none;fontColor=#5C5C5C;" parent="ab-andwz2Mcpa9uNdyiQ-201" vertex="1">
          <mxGeometry width="30" height="30" as="geometry">
            <mxRectangle width="30" height="30" as="alternateBounds" />
          </mxGeometry>
        </mxCell>
        <mxCell id="ab-andwz2Mcpa9uNdyiQ-203" value="salesNo VARCHAR(20) NOT NULL COMMENT &#39;销售单的编号&#39;" style="shape=partialRectangle;overflow=hidden;connectable=0;fillColor=none;align=left;strokeColor=#006658;top=0;left=0;bottom=0;right=0;spacingLeft=6;labelBackgroundColor=none;fontColor=#5C5C5C;" parent="ab-andwz2Mcpa9uNdyiQ-201" vertex="1">
          <mxGeometry x="30" width="390" height="30" as="geometry">
            <mxRectangle width="390" height="30" as="alternateBounds" />
          </mxGeometry>
        </mxCell>
        <mxCell id="ab-andwz2Mcpa9uNdyiQ-204" value="" style="shape=tableRow;horizontal=0;startSize=0;swimlaneHead=0;swimlaneBody=0;fillColor=none;collapsible=0;dropTarget=0;points=[[0,0.5],[1,0.5]];portConstraint=eastwest;strokeColor=#006658;top=0;left=0;right=0;bottom=0;labelBackgroundColor=none;fontColor=#5C5C5C;" parent="ab-andwz2Mcpa9uNdyiQ-191" vertex="1">
          <mxGeometry y="152" width="420" height="30" as="geometry" />
        </mxCell>
        <mxCell id="ab-andwz2Mcpa9uNdyiQ-205" value="" style="shape=partialRectangle;overflow=hidden;connectable=0;fillColor=none;strokeColor=#006658;top=0;left=0;bottom=0;right=0;labelBackgroundColor=none;fontColor=#5C5C5C;" parent="ab-andwz2Mcpa9uNdyiQ-204" vertex="1">
          <mxGeometry width="30" height="30" as="geometry">
            <mxRectangle width="30" height="30" as="alternateBounds" />
          </mxGeometry>
        </mxCell>
        <mxCell id="ab-andwz2Mcpa9uNdyiQ-206" value="purchaserName VARCHAR(100) NOT NULL COMMENT &#39;采购商的名称&#39;" style="shape=partialRectangle;overflow=hidden;connectable=0;fillColor=none;align=left;strokeColor=#006658;top=0;left=0;bottom=0;right=0;spacingLeft=6;labelBackgroundColor=none;fontColor=#5C5C5C;" parent="ab-andwz2Mcpa9uNdyiQ-204" vertex="1">
          <mxGeometry x="30" width="390" height="30" as="geometry">
            <mxRectangle width="390" height="30" as="alternateBounds" />
          </mxGeometry>
        </mxCell>
        <mxCell id="ab-andwz2Mcpa9uNdyiQ-207" value="" style="shape=tableRow;horizontal=0;startSize=0;swimlaneHead=0;swimlaneBody=0;fillColor=none;collapsible=0;dropTarget=0;points=[[0,0.5],[1,0.5]];portConstraint=eastwest;strokeColor=#006658;top=0;left=0;right=0;bottom=0;labelBackgroundColor=none;fontColor=#5C5C5C;" parent="ab-andwz2Mcpa9uNdyiQ-191" vertex="1">
          <mxGeometry y="182" width="420" height="30" as="geometry" />
        </mxCell>
        <mxCell id="ab-andwz2Mcpa9uNdyiQ-208" value="" style="shape=partialRectangle;overflow=hidden;connectable=0;fillColor=none;strokeColor=#006658;top=0;left=0;bottom=0;right=0;labelBackgroundColor=none;fontColor=#5C5C5C;" parent="ab-andwz2Mcpa9uNdyiQ-207" vertex="1">
          <mxGeometry width="30" height="30" as="geometry">
            <mxRectangle width="30" height="30" as="alternateBounds" />
          </mxGeometry>
        </mxCell>
        <mxCell id="ab-andwz2Mcpa9uNdyiQ-209" value="goodsPrice DECIMAL(10,2) NOT NULL COMMENT &#39;销售商品的单价&#39;" style="shape=partialRectangle;overflow=hidden;connectable=0;fillColor=none;align=left;strokeColor=#006658;top=0;left=0;bottom=0;right=0;spacingLeft=6;labelBackgroundColor=none;fontColor=#5C5C5C;" parent="ab-andwz2Mcpa9uNdyiQ-207" vertex="1">
          <mxGeometry x="30" width="390" height="30" as="geometry">
            <mxRectangle width="390" height="30" as="alternateBounds" />
          </mxGeometry>
        </mxCell>
        <mxCell id="ab-andwz2Mcpa9uNdyiQ-210" value="" style="shape=tableRow;horizontal=0;startSize=0;swimlaneHead=0;swimlaneBody=0;fillColor=none;collapsible=0;dropTarget=0;points=[[0,0.5],[1,0.5]];portConstraint=eastwest;strokeColor=#006658;top=0;left=0;right=0;bottom=0;labelBackgroundColor=none;fontColor=#5C5C5C;" parent="ab-andwz2Mcpa9uNdyiQ-191" vertex="1">
          <mxGeometry y="212" width="420" height="30" as="geometry" />
        </mxCell>
        <mxCell id="ab-andwz2Mcpa9uNdyiQ-211" value="" style="shape=partialRectangle;overflow=hidden;connectable=0;fillColor=none;strokeColor=#006658;top=0;left=0;bottom=0;right=0;labelBackgroundColor=none;fontColor=#5C5C5C;" parent="ab-andwz2Mcpa9uNdyiQ-210" vertex="1">
          <mxGeometry width="30" height="30" as="geometry">
            <mxRectangle width="30" height="30" as="alternateBounds" />
          </mxGeometry>
        </mxCell>
        <mxCell id="ab-andwz2Mcpa9uNdyiQ-212" value="goodsAmount DECIMAL(10,2) NOT NULL COMMENT &#39;销售商品的总金额&#39;" style="shape=partialRectangle;overflow=hidden;connectable=0;fillColor=none;align=left;strokeColor=#006658;top=0;left=0;bottom=0;right=0;spacingLeft=6;labelBackgroundColor=none;fontColor=#5C5C5C;" parent="ab-andwz2Mcpa9uNdyiQ-210" vertex="1">
          <mxGeometry x="30" width="390" height="30" as="geometry">
            <mxRectangle width="390" height="30" as="alternateBounds" />
          </mxGeometry>
        </mxCell>
        <mxCell id="ab-andwz2Mcpa9uNdyiQ-213" value="" style="shape=tableRow;horizontal=0;startSize=0;swimlaneHead=0;swimlaneBody=0;fillColor=none;collapsible=0;dropTarget=0;points=[[0,0.5],[1,0.5]];portConstraint=eastwest;strokeColor=#006658;top=0;left=0;right=0;bottom=0;labelBackgroundColor=none;fontColor=#5C5C5C;" parent="ab-andwz2Mcpa9uNdyiQ-191" vertex="1">
          <mxGeometry y="242" width="420" height="30" as="geometry" />
        </mxCell>
        <mxCell id="ab-andwz2Mcpa9uNdyiQ-214" value="" style="shape=partialRectangle;overflow=hidden;connectable=0;fillColor=none;strokeColor=#006658;top=0;left=0;bottom=0;right=0;labelBackgroundColor=none;fontColor=#5C5C5C;" parent="ab-andwz2Mcpa9uNdyiQ-213" vertex="1">
          <mxGeometry width="30" height="30" as="geometry">
            <mxRectangle width="30" height="30" as="alternateBounds" />
          </mxGeometry>
        </mxCell>
        <mxCell id="ab-andwz2Mcpa9uNdyiQ-215" value="salesTime DATETIME NOT NULL COMMENT &#39;商品销售的时间&#39;" style="shape=partialRectangle;overflow=hidden;connectable=0;fillColor=none;align=left;strokeColor=#006658;top=0;left=0;bottom=0;right=0;spacingLeft=6;labelBackgroundColor=none;fontColor=#5C5C5C;" parent="ab-andwz2Mcpa9uNdyiQ-213" vertex="1">
          <mxGeometry x="30" width="390" height="30" as="geometry">
            <mxRectangle width="390" height="30" as="alternateBounds" />
          </mxGeometry>
        </mxCell>
        <mxCell id="ab-andwz2Mcpa9uNdyiQ-216" value="" style="shape=tableRow;horizontal=0;startSize=0;swimlaneHead=0;swimlaneBody=0;fillColor=none;collapsible=0;dropTarget=0;points=[[0,0.5],[1,0.5]];portConstraint=eastwest;strokeColor=#006658;top=0;left=0;right=0;bottom=0;labelBackgroundColor=none;fontColor=#5C5C5C;" parent="ab-andwz2Mcpa9uNdyiQ-191" vertex="1">
          <mxGeometry y="272" width="420" height="30" as="geometry" />
        </mxCell>
        <mxCell id="ab-andwz2Mcpa9uNdyiQ-217" value="" style="shape=partialRectangle;overflow=hidden;connectable=0;fillColor=none;strokeColor=#006658;top=0;left=0;bottom=0;right=0;labelBackgroundColor=none;fontColor=#5C5C5C;" parent="ab-andwz2Mcpa9uNdyiQ-216" vertex="1">
          <mxGeometry width="30" height="30" as="geometry">
            <mxRectangle width="30" height="30" as="alternateBounds" />
          </mxGeometry>
        </mxCell>
        <mxCell id="ab-andwz2Mcpa9uNdyiQ-218" value="warehouseName VARCHAR(100) NOT NULL COMMENT &#39;销售商品出库的仓库名称&#39;" style="shape=partialRectangle;overflow=hidden;connectable=0;fillColor=none;align=left;strokeColor=#006658;top=0;left=0;bottom=0;right=0;spacingLeft=6;labelBackgroundColor=none;fontColor=#5C5C5C;" parent="ab-andwz2Mcpa9uNdyiQ-216" vertex="1">
          <mxGeometry x="30" width="390" height="30" as="geometry">
            <mxRectangle width="390" height="30" as="alternateBounds" />
          </mxGeometry>
        </mxCell>
        <mxCell id="ab-andwz2Mcpa9uNdyiQ-219" value="" style="shape=tableRow;horizontal=0;startSize=0;swimlaneHead=0;swimlaneBody=0;fillColor=none;collapsible=0;dropTarget=0;points=[[0,0.5],[1,0.5]];portConstraint=eastwest;strokeColor=#006658;top=0;left=0;right=0;bottom=0;labelBackgroundColor=none;fontColor=#5C5C5C;" parent="ab-andwz2Mcpa9uNdyiQ-191" vertex="1">
          <mxGeometry y="302" width="420" height="30" as="geometry" />
        </mxCell>
        <mxCell id="ab-andwz2Mcpa9uNdyiQ-220" value="" style="shape=partialRectangle;overflow=hidden;connectable=0;fillColor=none;strokeColor=#006658;top=0;left=0;bottom=0;right=0;labelBackgroundColor=none;fontColor=#5C5C5C;" parent="ab-andwz2Mcpa9uNdyiQ-219" vertex="1">
          <mxGeometry width="30" height="30" as="geometry">
            <mxRectangle width="30" height="30" as="alternateBounds" />
          </mxGeometry>
        </mxCell>
        <mxCell id="ab-andwz2Mcpa9uNdyiQ-221" value="operatorId INT NOT NULL COMMENT &#39;执行销售操作的用户ID&#39;" style="shape=partialRectangle;overflow=hidden;connectable=0;fillColor=none;align=left;strokeColor=#006658;top=0;left=0;bottom=0;right=0;spacingLeft=6;labelBackgroundColor=none;fontColor=#5C5C5C;" parent="ab-andwz2Mcpa9uNdyiQ-219" vertex="1">
          <mxGeometry x="30" width="390" height="30" as="geometry">
            <mxRectangle width="390" height="30" as="alternateBounds" />
          </mxGeometry>
        </mxCell>
        <mxCell id="ab-andwz2Mcpa9uNdyiQ-222" value="" style="shape=tableRow;horizontal=0;startSize=0;swimlaneHead=0;swimlaneBody=0;fillColor=none;collapsible=0;dropTarget=0;points=[[0,0.5],[1,0.5]];portConstraint=eastwest;strokeColor=#006658;top=0;left=0;right=0;bottom=0;labelBackgroundColor=none;fontColor=#5C5C5C;" parent="ab-andwz2Mcpa9uNdyiQ-191" vertex="1">
          <mxGeometry y="332" width="420" height="30" as="geometry" />
        </mxCell>
        <mxCell id="ab-andwz2Mcpa9uNdyiQ-223" value="" style="shape=partialRectangle;overflow=hidden;connectable=0;fillColor=none;strokeColor=#006658;top=0;left=0;bottom=0;right=0;labelBackgroundColor=none;fontColor=#5C5C5C;" parent="ab-andwz2Mcpa9uNdyiQ-222" vertex="1">
          <mxGeometry width="30" height="30" as="geometry">
            <mxRectangle width="30" height="30" as="alternateBounds" />
          </mxGeometry>
        </mxCell>
        <mxCell id="ab-andwz2Mcpa9uNdyiQ-224" value="operatorName VARCHAR(50) NOT NULL COMMENT &#39;执行销售操作的用户名称&#39;" style="shape=partialRectangle;overflow=hidden;connectable=0;fillColor=none;align=left;strokeColor=#006658;top=0;left=0;bottom=0;right=0;spacingLeft=6;labelBackgroundColor=none;fontColor=#5C5C5C;" parent="ab-andwz2Mcpa9uNdyiQ-222" vertex="1">
          <mxGeometry x="30" width="390" height="30" as="geometry">
            <mxRectangle width="390" height="30" as="alternateBounds" />
          </mxGeometry>
        </mxCell>
        <mxCell id="ab-andwz2Mcpa9uNdyiQ-225" value="" style="shape=tableRow;horizontal=0;startSize=0;swimlaneHead=0;swimlaneBody=0;fillColor=none;collapsible=0;dropTarget=0;points=[[0,0.5],[1,0.5]];portConstraint=eastwest;strokeColor=#006658;top=0;left=0;right=0;bottom=0;labelBackgroundColor=none;fontColor=#5C5C5C;" parent="ab-andwz2Mcpa9uNdyiQ-191" vertex="1">
          <mxGeometry y="362" width="420" height="30" as="geometry" />
        </mxCell>
        <mxCell id="ab-andwz2Mcpa9uNdyiQ-226" value="" style="shape=partialRectangle;overflow=hidden;connectable=0;fillColor=none;strokeColor=#006658;top=0;left=0;bottom=0;right=0;labelBackgroundColor=none;fontColor=#5C5C5C;" parent="ab-andwz2Mcpa9uNdyiQ-225" vertex="1">
          <mxGeometry width="30" height="30" as="geometry">
            <mxRectangle width="30" height="30" as="alternateBounds" />
          </mxGeometry>
        </mxCell>
        <mxCell id="ab-andwz2Mcpa9uNdyiQ-227" value="remark VARCHAR(500) COMMENT &#39;销售单的备注信息&#39;" style="shape=partialRectangle;overflow=hidden;connectable=0;fillColor=none;align=left;strokeColor=#006658;top=0;left=0;bottom=0;right=0;spacingLeft=6;labelBackgroundColor=none;fontColor=#5C5C5C;" parent="ab-andwz2Mcpa9uNdyiQ-225" vertex="1">
          <mxGeometry x="30" width="390" height="30" as="geometry">
            <mxRectangle width="390" height="30" as="alternateBounds" />
          </mxGeometry>
        </mxCell>
        <mxCell id="ab-andwz2Mcpa9uNdyiQ-235" value="InListGoods" style="shape=table;startSize=30;container=1;collapsible=1;childLayout=tableLayout;fixedRows=1;rowLines=0;fontStyle=1;align=center;resizeLast=1;labelBackgroundColor=none;fillColor=#21C0A5;strokeColor=#006658;fontColor=#5C5C5C;" parent="1" vertex="1">
          <mxGeometry x="1249" y="674" width="320" height="92.14999389648438" as="geometry" />
        </mxCell>
        <mxCell id="ab-andwz2Mcpa9uNdyiQ-239" value="" style="shape=tableRow;horizontal=0;startSize=0;swimlaneHead=0;swimlaneBody=0;fillColor=none;collapsible=0;dropTarget=0;points=[[0,0.5],[1,0.5]];portConstraint=eastwest;strokeColor=#006658;top=0;left=0;right=0;bottom=1;labelBackgroundColor=none;fontColor=#5C5C5C;" parent="ab-andwz2Mcpa9uNdyiQ-235" vertex="1">
          <mxGeometry y="30" width="320" height="30" as="geometry" />
        </mxCell>
        <mxCell id="ab-andwz2Mcpa9uNdyiQ-240" value="PK" style="shape=partialRectangle;overflow=hidden;connectable=0;fillColor=none;strokeColor=#006658;top=0;left=0;bottom=0;right=0;fontStyle=1;labelBackgroundColor=none;fontColor=#5C5C5C;" parent="ab-andwz2Mcpa9uNdyiQ-239" vertex="1">
          <mxGeometry width="30.14996337890625" height="30" as="geometry">
            <mxRectangle width="30.14996337890625" height="30" as="alternateBounds" />
          </mxGeometry>
        </mxCell>
        <mxCell id="ab-andwz2Mcpa9uNdyiQ-241" value="goodsInId INT NOT NULL COMMENT &#39;入库单的唯一标识&#39;" style="shape=partialRectangle;overflow=hidden;connectable=0;fillColor=none;align=left;strokeColor=#006658;top=0;left=0;bottom=0;right=0;spacingLeft=6;fontStyle=5;labelBackgroundColor=none;fontColor=#5C5C5C;" parent="ab-andwz2Mcpa9uNdyiQ-239" vertex="1">
          <mxGeometry x="30.14996337890625" width="289.85003662109375" height="30" as="geometry">
            <mxRectangle width="289.85003662109375" height="30" as="alternateBounds" />
          </mxGeometry>
        </mxCell>
        <mxCell id="ab-andwz2Mcpa9uNdyiQ-236" value="" style="shape=tableRow;horizontal=0;startSize=0;swimlaneHead=0;swimlaneBody=0;fillColor=none;collapsible=0;dropTarget=0;points=[[0,0.5],[1,0.5]];portConstraint=eastwest;strokeColor=#006658;top=0;left=0;right=0;bottom=1;labelBackgroundColor=none;fontColor=#5C5C5C;" parent="ab-andwz2Mcpa9uNdyiQ-235" vertex="1">
          <mxGeometry y="60" width="320" height="32" as="geometry" />
        </mxCell>
        <mxCell id="ab-andwz2Mcpa9uNdyiQ-237" value="PK" style="shape=partialRectangle;overflow=hidden;connectable=0;fillColor=none;strokeColor=#006658;top=0;left=0;bottom=0;right=0;fontStyle=1;labelBackgroundColor=none;fontColor=#5C5C5C;" parent="ab-andwz2Mcpa9uNdyiQ-236" vertex="1">
          <mxGeometry width="30.14996337890625" height="32" as="geometry">
            <mxRectangle width="30.14996337890625" height="32" as="alternateBounds" />
          </mxGeometry>
        </mxCell>
        <mxCell id="ab-andwz2Mcpa9uNdyiQ-238" value="goodsId INT NOT NULL COMMENT &#39;入库商品的ID&#39;" style="shape=partialRectangle;overflow=hidden;connectable=0;fillColor=none;align=left;strokeColor=#006658;top=0;left=0;bottom=0;right=0;spacingLeft=6;fontStyle=5;labelBackgroundColor=none;fontColor=#5C5C5C;" parent="ab-andwz2Mcpa9uNdyiQ-236" vertex="1">
          <mxGeometry x="30.14996337890625" width="289.85003662109375" height="32" as="geometry">
            <mxRectangle width="289.85003662109375" height="32" as="alternateBounds" />
          </mxGeometry>
        </mxCell>
        <mxCell id="ab-andwz2Mcpa9uNdyiQ-285" value="SalesListGoods" style="shape=table;startSize=30;container=1;collapsible=1;childLayout=tableLayout;fixedRows=1;rowLines=0;fontStyle=1;align=center;resizeLast=1;labelBackgroundColor=none;fillColor=#21C0A5;strokeColor=#006658;fontColor=#5C5C5C;" parent="1" vertex="1">
          <mxGeometry x="1642" y="715" width="320" height="90" as="geometry" />
        </mxCell>
        <mxCell id="ab-andwz2Mcpa9uNdyiQ-286" value="" style="shape=tableRow;horizontal=0;startSize=0;swimlaneHead=0;swimlaneBody=0;fillColor=none;collapsible=0;dropTarget=0;points=[[0,0.5],[1,0.5]];portConstraint=eastwest;strokeColor=#006658;top=0;left=0;right=0;bottom=1;labelBackgroundColor=none;fontColor=#5C5C5C;" parent="ab-andwz2Mcpa9uNdyiQ-285" vertex="1">
          <mxGeometry y="30" width="320" height="30" as="geometry" />
        </mxCell>
        <mxCell id="ab-andwz2Mcpa9uNdyiQ-287" value="PK" style="shape=partialRectangle;overflow=hidden;connectable=0;fillColor=none;strokeColor=#006658;top=0;left=0;bottom=0;right=0;fontStyle=1;labelBackgroundColor=none;fontColor=#5C5C5C;" parent="ab-andwz2Mcpa9uNdyiQ-286" vertex="1">
          <mxGeometry width="30" height="30" as="geometry">
            <mxRectangle width="30" height="30" as="alternateBounds" />
          </mxGeometry>
        </mxCell>
        <mxCell id="ab-andwz2Mcpa9uNdyiQ-288" value="salesId INT NOT NULL COMMENT &#39;销售单的唯一标识&#39;" style="shape=partialRectangle;overflow=hidden;connectable=0;fillColor=none;align=left;strokeColor=#006658;top=0;left=0;bottom=0;right=0;spacingLeft=6;fontStyle=5;labelBackgroundColor=none;fontColor=#5C5C5C;" parent="ab-andwz2Mcpa9uNdyiQ-286" vertex="1">
          <mxGeometry x="30" width="290" height="30" as="geometry">
            <mxRectangle width="290" height="30" as="alternateBounds" />
          </mxGeometry>
        </mxCell>
        <mxCell id="ab-andwz2Mcpa9uNdyiQ-289" value="" style="shape=tableRow;horizontal=0;startSize=0;swimlaneHead=0;swimlaneBody=0;fillColor=none;collapsible=0;dropTarget=0;points=[[0,0.5],[1,0.5]];portConstraint=eastwest;strokeColor=#006658;top=0;left=0;right=0;bottom=1;labelBackgroundColor=none;fontColor=#5C5C5C;" parent="ab-andwz2Mcpa9uNdyiQ-285" vertex="1">
          <mxGeometry y="60" width="320" height="30" as="geometry" />
        </mxCell>
        <mxCell id="ab-andwz2Mcpa9uNdyiQ-290" value="PK" style="shape=partialRectangle;overflow=hidden;connectable=0;fillColor=none;strokeColor=#006658;top=0;left=0;bottom=0;right=0;fontStyle=1;labelBackgroundColor=none;fontColor=#5C5C5C;" parent="ab-andwz2Mcpa9uNdyiQ-289" vertex="1">
          <mxGeometry width="30" height="30" as="geometry">
            <mxRectangle width="30" height="30" as="alternateBounds" />
          </mxGeometry>
        </mxCell>
        <mxCell id="ab-andwz2Mcpa9uNdyiQ-291" value="goodsId INT NOT NULL COMMENT &#39;销售商品的ID&#39;" style="shape=partialRectangle;overflow=hidden;connectable=0;fillColor=none;align=left;strokeColor=#006658;top=0;left=0;bottom=0;right=0;spacingLeft=6;fontStyle=5;labelBackgroundColor=none;fontColor=#5C5C5C;" parent="ab-andwz2Mcpa9uNdyiQ-289" vertex="1">
          <mxGeometry x="30" width="290" height="30" as="geometry">
            <mxRectangle width="290" height="30" as="alternateBounds" />
          </mxGeometry>
        </mxCell>
        <mxCell id="ab-andwz2Mcpa9uNdyiQ-293" value="" style="edgeStyle=entityRelationEdgeStyle;fontSize=12;html=1;endArrow=ERoneToMany;rounded=0;strokeColor=#006658;fontColor=default;fillColor=#21C0A5;exitX=0.974;exitY=-0.081;exitDx=0;exitDy=0;exitPerimeter=0;labelBackgroundColor=none;" parent="1" source="ab-andwz2Mcpa9uNdyiQ-92" target="ab-andwz2Mcpa9uNdyiQ-114" edge="1">
          <mxGeometry width="100" height="100" relative="1" as="geometry">
            <mxPoint x="1746" y="253" as="sourcePoint" />
            <mxPoint x="1622" y="149" as="targetPoint" />
          </mxGeometry>
        </mxCell>
        <mxCell id="ab-andwz2Mcpa9uNdyiQ-294" value="" style="edgeStyle=entityRelationEdgeStyle;fontSize=12;html=1;endArrow=ERmandOne;startArrow=ERmandOne;rounded=0;strokeColor=#006658;fontColor=default;fillColor=#21C0A5;labelBackgroundColor=none;" parent="1" source="ab-andwz2Mcpa9uNdyiQ-155" target="ab-andwz2Mcpa9uNdyiQ-92" edge="1">
          <mxGeometry width="100" height="100" relative="1" as="geometry">
            <mxPoint x="320" y="115" as="sourcePoint" />
            <mxPoint x="1461.4213562373095" y="285" as="targetPoint" />
          </mxGeometry>
        </mxCell>
        <mxCell id="ab-andwz2Mcpa9uNdyiQ-295" value="" style="edgeStyle=entityRelationEdgeStyle;fontSize=12;html=1;endArrow=ERmandOne;startArrow=ERmandOne;rounded=0;strokeColor=#006658;fontColor=default;fillColor=#21C0A5;exitX=1;exitY=0.5;exitDx=0;exitDy=0;labelBackgroundColor=none;" parent="1" source="ab-andwz2Mcpa9uNdyiQ-95" edge="1">
          <mxGeometry width="100" height="100" relative="1" as="geometry">
            <mxPoint x="1730" y="395" as="sourcePoint" />
            <mxPoint x="1830" y="295" as="targetPoint" />
          </mxGeometry>
        </mxCell>
        <mxCell id="ab-andwz2Mcpa9uNdyiQ-296" value="" style="edgeStyle=entityRelationEdgeStyle;fontSize=12;html=1;endArrow=ERoneToMany;rounded=0;strokeColor=#006658;fontColor=default;fillColor=#21C0A5;exitX=1;exitY=0.5;exitDx=0;exitDy=0;labelBackgroundColor=none;" parent="1" source="ab-andwz2Mcpa9uNdyiQ-98" target="ab-andwz2Mcpa9uNdyiQ-1" edge="1">
          <mxGeometry width="100" height="100" relative="1" as="geometry">
            <mxPoint x="1742" y="332" as="sourcePoint" />
            <mxPoint x="1803" y="529" as="targetPoint" />
            <Array as="points">
              <mxPoint x="1773" y="446" />
              <mxPoint x="1770" y="415" />
            </Array>
          </mxGeometry>
        </mxCell>
        <mxCell id="ab-andwz2Mcpa9uNdyiQ-297" value="" style="edgeStyle=entityRelationEdgeStyle;fontSize=12;html=1;endArrow=ERoneToMany;rounded=0;strokeColor=#006658;fontColor=default;fillColor=#21C0A5;exitX=0.177;exitY=-0.001;exitDx=0;exitDy=0;exitPerimeter=0;labelBackgroundColor=none;" parent="1" source="ab-andwz2Mcpa9uNdyiQ-23" edge="1">
          <mxGeometry width="100" height="100" relative="1" as="geometry">
            <mxPoint x="904" y="500" as="sourcePoint" />
            <mxPoint x="1004" y="400" as="targetPoint" />
          </mxGeometry>
        </mxCell>
        <mxCell id="ab-andwz2Mcpa9uNdyiQ-298" value="" style="edgeStyle=entityRelationEdgeStyle;fontSize=12;html=1;endArrow=ERmandOne;startArrow=ERmandOne;rounded=0;strokeColor=#006658;fontColor=default;fillColor=#21C0A5;entryX=1.003;entryY=0.059;entryDx=0;entryDy=0;entryPerimeter=0;labelBackgroundColor=none;" parent="1" source="ab-andwz2Mcpa9uNdyiQ-235" target="ab-andwz2Mcpa9uNdyiQ-117" edge="1">
          <mxGeometry width="100" height="100" relative="1" as="geometry">
            <mxPoint x="1339" y="827" as="sourcePoint" />
            <mxPoint x="1655" y="923" as="targetPoint" />
            <Array as="points">
              <mxPoint x="1219.8" y="906.13" />
              <mxPoint x="1300" y="934.13" />
              <mxPoint x="1595" y="966" />
              <mxPoint x="1331" y="930.13" />
              <mxPoint x="1323" y="930.13" />
              <mxPoint x="1221.8" y="991.13" />
            </Array>
          </mxGeometry>
        </mxCell>
        <mxCell id="ab-andwz2Mcpa9uNdyiQ-299" value="" style="edgeStyle=entityRelationEdgeStyle;fontSize=12;html=1;endArrow=ERmandOne;startArrow=ERmandOne;rounded=0;strokeColor=#006658;fontColor=default;fillColor=#21C0A5;entryX=0;entryY=0.25;entryDx=0;entryDy=0;labelBackgroundColor=none;" parent="1" source="ab-andwz2Mcpa9uNdyiQ-142" target="ab-andwz2Mcpa9uNdyiQ-285" edge="1">
          <mxGeometry width="100" height="100" relative="1" as="geometry">
            <mxPoint x="1682" y="968" as="sourcePoint" />
            <mxPoint x="1758" y="813" as="targetPoint" />
            <Array as="points">
              <mxPoint x="1627" y="892" />
            </Array>
          </mxGeometry>
        </mxCell>
        <mxCell id="ab-andwz2Mcpa9uNdyiQ-301" value="" style="edgeStyle=entityRelationEdgeStyle;fontSize=12;html=1;endArrow=ERmandOne;startArrow=ERmandOne;rounded=0;strokeColor=#006658;fontColor=default;fillColor=#21C0A5;labelBackgroundColor=none;entryX=1;entryY=0.5;entryDx=0;entryDy=0;exitX=0.313;exitY=0.023;exitDx=0;exitDy=0;exitPerimeter=0;" parent="1" source="ab-andwz2Mcpa9uNdyiQ-235" target="ab-andwz2Mcpa9uNdyiQ-185" edge="1">
          <mxGeometry width="100" height="100" relative="1" as="geometry">
            <mxPoint x="1733" y="1351" as="sourcePoint" />
            <mxPoint x="1792" y="931" as="targetPoint" />
            <Array as="points">
              <mxPoint x="1816" y="938" />
            </Array>
          </mxGeometry>
        </mxCell>
        <mxCell id="ab-andwz2Mcpa9uNdyiQ-303" value="" style="edgeStyle=entityRelationEdgeStyle;fontSize=12;html=1;endArrow=ERmandOne;startArrow=ERmandOne;rounded=0;strokeColor=#006658;fontColor=#5C5C5C;fillColor=#21C0A5;exitX=0.5;exitY=0;exitDx=0;exitDy=0;entryX=0;entryY=0.5;entryDx=0;entryDy=0;" parent="1" source="ab-andwz2Mcpa9uNdyiQ-285" target="ab-andwz2Mcpa9uNdyiQ-225" edge="1">
          <mxGeometry width="100" height="100" relative="1" as="geometry">
            <mxPoint x="1743" y="690" as="sourcePoint" />
            <mxPoint x="1843" y="590" as="targetPoint" />
          </mxGeometry>
        </mxCell>
        <mxCell id="ab-andwz2Mcpa9uNdyiQ-304" value="" style="edgeStyle=entityRelationEdgeStyle;fontSize=12;html=1;endArrow=ERoneToMany;rounded=0;strokeColor=#006658;fontColor=#5C5C5C;fillColor=#21C0A5;entryX=1;entryY=0.5;entryDx=0;entryDy=0;" parent="1" target="ab-andwz2Mcpa9uNdyiQ-210" edge="1">
          <mxGeometry width="100" height="100" relative="1" as="geometry">
            <mxPoint x="2285" y="650" as="sourcePoint" />
            <mxPoint x="2398" y="561" as="targetPoint" />
            <Array as="points">
              <mxPoint x="2283" y="656" />
            </Array>
          </mxGeometry>
        </mxCell>
        <mxCell id="ab-andwz2Mcpa9uNdyiQ-305" value="" style="edgeStyle=entityRelationEdgeStyle;fontSize=12;html=1;endArrow=ERmandOne;startArrow=ERmandOne;rounded=0;strokeColor=#006658;fontColor=#5C5C5C;fillColor=#21C0A5;" parent="1" edge="1">
          <mxGeometry width="100" height="100" relative="1" as="geometry">
            <mxPoint x="742" y="1383" as="sourcePoint" />
            <mxPoint x="842" y="1283" as="targetPoint" />
          </mxGeometry>
        </mxCell>
        <mxCell id="ab-andwz2Mcpa9uNdyiQ-306" value="一对一" style="text;html=1;align=center;verticalAlign=middle;resizable=0;points=[];autosize=1;strokeColor=none;fillColor=none;fontColor=#5C5C5C;" parent="1" vertex="1">
          <mxGeometry x="814" y="1335" width="54" height="26" as="geometry" />
        </mxCell>
        <mxCell id="ab-andwz2Mcpa9uNdyiQ-307" value="" style="edgeStyle=entityRelationEdgeStyle;fontSize=12;html=1;endArrow=ERoneToMany;rounded=0;strokeColor=#006658;fontColor=#5C5C5C;fillColor=#21C0A5;" parent="1" edge="1">
          <mxGeometry width="100" height="100" relative="1" as="geometry">
            <mxPoint x="1055" y="1367" as="sourcePoint" />
            <mxPoint x="1155" y="1267" as="targetPoint" />
            <Array as="points">
              <mxPoint x="388" y="1285" />
            </Array>
          </mxGeometry>
        </mxCell>
        <mxCell id="ab-andwz2Mcpa9uNdyiQ-308" value="一对多" style="text;html=1;align=center;verticalAlign=middle;resizable=0;points=[];autosize=1;strokeColor=none;fillColor=none;fontColor=#5C5C5C;" parent="1" vertex="1">
          <mxGeometry x="1134" y="1300" width="54" height="26" as="geometry" />
        </mxCell>
      </root>
    </mxGraphModel>
  </diagram>
</mxfile>
